<svg version="1.1" id="Layer_1" xmlns="http://www.w3.org/2000/svg" xmlns:xlink="http://www.w3.org/1999/xlink" x="0px" y="0px"
	 width="100%" viewBox="0 0 200 200" enable-background="new 0 0 200 200" xml:space="preserve">
<path fill="#ED202A" opacity="1.000000" stroke="none" 
	d="
M193.000000,201.000000 
	C129.979111,201.000000 66.958206,201.000000 3.474204,200.531372 
	C3.007396,133.708481 3.003698,67.354240 3.000000,1.000000 
	C66.020897,1.000000 129.041794,1.000000 192.531342,1.468657 
	C193.000000,68.291542 193.000000,134.645767 193.000000,201.000000 
M82.152077,126.500320 
	C82.412476,125.960381 82.672867,125.420441 82.927475,124.937416 
	C82.927475,124.937416 82.877922,124.908760 83.492058,124.611343 
	C85.832527,117.976036 91.457855,119.018784 96.616226,119.018433 
	C107.553413,119.017677 118.491646,118.968552 129.426910,119.120987 
	C131.679504,119.152390 134.527039,119.269424 136.049591,120.573654 
	C140.000488,123.958000 144.393738,124.269440 149.464569,124.246223 
	C149.938568,123.850960 150.412552,123.455696 151.157043,122.595734 
	C151.436218,122.136391 151.715393,121.677048 152.456100,121.064232 
	C152.456100,121.064232 152.911926,120.898773 153.630112,120.888031 
	C156.685089,120.294693 159.781937,119.856323 162.778412,119.046532 
	C164.423523,118.601944 167.313400,117.257790 167.222397,116.787392 
	C166.628250,113.716469 168.455215,109.171844 163.441116,108.264328 
	C160.352570,107.705330 159.878586,105.872437 159.989868,103.316032 
	C160.083130,101.173424 160.075241,99.026428 160.819763,96.635727 
	C162.367020,96.338135 163.914291,96.040543 165.461548,95.742950 
	C165.460175,95.196442 165.458817,94.649940 165.457443,94.103432 
	C163.425491,93.681335 161.393524,93.259247 159.373291,92.839584 
	C159.223694,92.178299 159.210342,91.666351 158.996414,91.260010 
	C158.400238,90.127716 157.720871,89.039230 157.074356,87.933441 
	C156.400253,88.990715 155.731216,90.051270 155.050598,91.104340 
	C154.386459,92.131950 153.710510,93.151901 152.229416,94.163857 
	C150.102982,93.714333 147.976562,93.264809 145.637894,92.348541 
	C139.970139,91.331863 134.019440,87.407928 128.837860,93.686127 
	C128.837860,93.686127 128.680878,93.349548 128.527496,92.959526 
	C128.054443,93.017128 127.581398,93.074730 126.519409,93.387352 
	C126.168343,93.910744 125.817276,94.434135 125.146935,94.839874 
	C125.146935,94.839874 124.809380,94.882698 124.507179,95.224617 
	C123.414848,94.814438 122.322525,94.404251 121.056236,93.921364 
	C121.056236,93.921364 121.092072,93.736259 120.806030,93.146927 
	C119.390320,93.544548 117.065971,93.585953 116.742264,94.411674 
	C115.997986,96.310135 116.325401,98.603600 116.039909,100.712669 
	C115.555984,104.287682 115.248489,108.041351 110.387367,109.104424 
	C110.387367,109.104424 110.047050,108.935455 110.237480,108.356415 
	C110.823174,107.584511 111.990463,106.733498 111.898018,106.053841 
	C111.385597,102.286560 110.734207,98.516129 109.751884,94.848145 
	C109.453346,93.733406 107.951988,92.940796 107.134720,91.465004 
	C105.671295,88.625137 104.841782,85.056801 102.602669,83.108307 
	C98.809288,79.807281 97.425957,80.788551 96.349785,86.049561 
	C95.898933,86.034294 95.448090,86.019028 94.963028,85.230225 
	C93.666069,84.003731 92.530624,82.026482 91.038841,81.705528 
	C87.838051,81.016876 84.455444,81.117180 81.143555,81.013924 
	C75.904541,80.850578 74.165489,79.252213 73.509178,74.058762 
	C73.319061,72.554367 72.747147,71.098221 72.470436,70.067574 
	C69.810738,71.009537 67.804970,72.284966 65.788437,72.302223 
	C62.730141,72.328392 59.678234,71.341980 56.598797,71.033134 
	C50.766209,70.448189 44.768764,74.798790 38.956688,70.489265 
	C38.710045,70.306389 37.134979,71.790611 36.301628,72.621452 
	C36.120258,72.802269 36.467026,73.512825 36.597885,74.102585 
	C38.006145,74.102585 39.339066,74.102585 40.827461,74.102585 
	C40.768116,79.749947 37.207294,79.784355 33.735153,79.196846 
	C33.735153,90.512360 33.735153,101.496231 33.735153,112.480095 
	C34.190609,112.201385 34.646065,111.922668 35.101521,111.643951 
	C37.049267,113.154182 40.109306,114.361809 40.626064,116.261330 
	C41.124134,118.092178 39.123970,120.707581 37.963726,122.837990 
	C37.426708,123.824043 36.277355,124.476616 35.405609,125.280373 
	C36.469833,125.910957 37.488400,126.643456 38.610001,127.145966 
	C39.969299,127.754951 41.383125,128.314880 42.830898,128.639130 
	C46.199142,129.393509 48.624142,128.917786 49.125591,124.613373 
	C49.346924,122.713455 51.015404,120.982132 52.596493,118.875259 
	C53.016987,118.816887 53.437477,118.758514 54.313408,119.243958 
	C56.044842,121.010254 58.410355,122.488724 59.370991,124.604927 
	C61.172310,128.573074 64.091484,129.271851 67.823471,129.004440 
	C69.635033,128.874664 71.455399,128.867538 74.038994,128.807159 
	C76.002327,128.505112 77.965652,128.203049 80.378166,128.040512 
	C80.803253,127.579079 81.228348,127.117645 81.680435,126.747955 
	C81.680435,126.747955 81.586296,126.764740 82.152077,126.500320 
z"/>
<path fill="#DA272D" opacity="1.000000" stroke="none" 
	d="
M198.000000,201.000000 
	C196.933426,201.000000 195.866867,201.000000 194.406418,200.531372 
	C194.008362,133.708496 194.004181,67.354248 194.000000,1.000000 
	C195.066574,1.000000 196.133133,1.000000 197.601410,1.468655 
	C198.002060,68.291542 198.001038,134.645767 198.000000,201.000000 
z"/>
<path fill="#FDF3F5" opacity="1.000000" stroke="none" 
	d="
M198.500000,201.000000 
	C198.001038,134.645767 198.002060,68.291542 198.001556,1.468655 
	C199.654388,1.048076 201.121964,0.384481 201.114685,3.500268 
	C200.962677,68.499916 201.000854,133.500000 200.993958,198.500000 
	C200.993820,199.828079 201.492950,201.627686 198.500000,201.000000 
z"/>
<path fill="#FDF5F0" opacity="1.000000" stroke="none" 
	d="
M2.500000,1.000000 
	C3.003698,67.354240 3.007396,133.708481 3.005546,200.531372 
	C2.333331,200.669128 1.267754,200.480377 1.088066,199.975998 
	C0.772713,199.090805 1.000000,198.012283 1.000000,197.014740 
	C1.000000,133.005722 0.993962,68.996704 1.041718,4.987726 
	C1.042710,3.658247 1.666667,2.329232 2.500000,1.000000 
z"/>
<path fill="#F41F32" opacity="1.000000" stroke="none" 
	d="
M193.750000,1.000000 
	C194.004181,67.354248 194.008362,133.708496 194.006271,200.531372 
	C194.000000,201.000000 193.500000,201.000000 193.250000,201.000000 
	C193.000000,134.645767 193.000000,68.291542 193.000000,1.468657 
	C193.000000,1.000000 193.500000,1.000000 193.750000,1.000000 
z"/>
<path fill="#E7252F" opacity="1.000000" stroke="none" 
	d="
M52.026894,119.174263 
	C51.015404,120.982132 49.346924,122.713455 49.125591,124.613373 
	C48.624142,128.917786 46.199142,129.393509 42.830898,128.639130 
	C41.383125,128.314880 39.969299,127.754951 38.610001,127.145966 
	C37.488400,126.643456 36.469833,125.910957 35.405609,125.280373 
	C36.277355,124.476616 37.426708,123.824043 37.963726,122.837990 
	C39.123970,120.707581 41.124134,118.092178 40.626064,116.261330 
	C40.109306,114.361809 37.049267,113.154182 35.101521,111.643951 
	C34.646065,111.922668 34.190609,112.201385 33.735153,112.480095 
	C33.735153,101.496231 33.735153,90.512360 33.735153,79.196846 
	C37.207294,79.784355 40.768116,79.749947 40.827461,74.102585 
	C39.339066,74.102585 38.006145,74.102585 36.597885,74.102585 
	C36.467026,73.512825 36.120258,72.802269 36.301628,72.621452 
	C37.134979,71.790611 38.710045,70.306389 38.956688,70.489265 
	C44.768764,74.798790 50.766209,70.448189 56.598797,71.033134 
	C59.678234,71.341980 62.730141,72.328392 65.788437,72.302223 
	C67.804970,72.284966 69.810738,71.009537 72.470436,70.067574 
	C72.747147,71.098221 73.319061,72.554367 73.509178,74.058762 
	C74.165489,79.252213 75.904541,80.850578 81.143555,81.013924 
	C84.455444,81.117180 87.838051,81.016876 91.038841,81.705528 
	C92.530624,82.026482 93.666069,84.003731 94.590698,85.599014 
	C89.872208,86.697540 85.526047,87.427261 81.107010,87.827446 
	C80.531715,86.779251 80.029305,86.060593 79.526894,85.341934 
	C79.143555,85.657562 78.760223,85.973198 78.376892,86.288826 
	C79.279297,87.218987 80.181694,88.149155 81.253220,89.454216 
	C81.376053,96.596420 81.329765,103.363716 81.066757,110.052063 
	C80.496284,110.064392 80.142525,110.155678 79.788757,110.246964 
	C80.282806,110.469704 80.776855,110.692451 81.452087,111.126862 
	C82.151535,111.856445 82.669785,112.374352 83.393585,112.938049 
	C83.599129,112.983833 83.987106,113.147720 83.992722,113.453056 
	C83.991753,114.165436 83.985168,114.572479 83.714798,115.175545 
	C82.963486,117.264206 82.475967,119.156853 81.846268,121.361816 
	C76.877480,127.215782 73.902245,127.324814 68.608887,122.213905 
	C67.675148,121.312355 66.603134,120.554016 65.436646,119.430511 
	C64.219940,118.212090 63.161560,117.292702 61.862953,116.164635 
	C63.078033,115.435616 63.918655,114.931259 65.207756,114.157829 
	C59.743011,114.396835 54.907948,114.608299 50.526707,114.799911 
	C49.869366,116.222633 49.237953,117.589241 48.505623,119.174263 
	C49.754410,119.174263 50.890652,119.174263 52.026894,119.174263 
M35.229008,93.820473 
	C35.204071,104.776459 41.336475,114.017281 47.985294,113.042732 
	C39.690231,101.585541 40.378212,87.415558 48.407570,76.842659 
	C46.299526,77.324799 43.555733,77.685013 42.587383,79.188637 
	C39.783543,83.542336 37.693336,88.355629 35.229008,93.820473 
M68.142853,112.064835 
	C82.033531,106.782227 80.136726,85.130943 70.304070,79.355743 
	C69.404778,78.827538 68.161728,78.884598 66.938545,78.642181 
	C66.938545,79.829720 66.815643,80.225746 66.956276,80.470108 
	C72.455353,90.025566 72.942642,99.595566 67.248962,109.287796 
	C66.856430,109.955986 67.292480,111.110939 68.142853,112.064835 
M75.046570,113.174698 
	C71.671623,114.926292 71.860847,117.459641 73.868752,119.996666 
	C74.008850,120.173683 76.881859,118.372505 78.317734,117.273918 
	C79.266281,116.548187 79.917160,115.433403 81.420547,113.630081 
	C78.882492,113.373734 77.343925,113.218338 75.046570,113.174698 
M79.997147,106.917747 
	C80.044777,106.544609 80.092407,106.171463 80.140030,105.798317 
	C79.994255,105.795959 79.722664,105.779236 79.721054,105.793335 
	C79.678352,106.167503 79.663490,106.544861 79.997147,106.917747 
z"/>
<path fill="#F7D0D1" opacity="1.000000" stroke="none" 
	d="
M145.850128,92.815285 
	C147.976562,93.264809 150.102982,93.714333 152.626892,94.500565 
	C153.016266,95.499413 153.008163,96.161552 152.646240,96.978043 
	C149.135040,97.132393 145.977661,97.132393 142.820282,97.132393 
	C142.694290,97.745636 142.568283,98.358887 142.442291,98.972130 
	C144.471954,99.974976 146.575684,100.855492 148.505356,102.023537 
	C149.798615,102.806328 150.844925,103.997047 152.049377,105.361588 
	C153.681107,107.607872 155.265167,109.497818 156.532379,111.292023 
	C155.456223,111.386543 154.696945,111.576813 153.645660,111.733749 
	C152.555344,111.746346 151.757034,111.792267 150.598206,111.945312 
	C145.275604,114.100433 140.495468,114.416145 136.264481,110.298874 
	C137.263626,109.667984 138.150391,109.311325 139.373505,109.129837 
	C141.618423,109.698418 143.561020,110.498352 145.423630,110.342506 
	C146.667999,110.238396 147.798630,108.774605 148.980164,107.919281 
	C148.009018,106.994469 147.189423,105.720016 146.034409,105.219337 
	C143.794571,104.248413 141.366104,103.712570 138.838425,102.667648 
	C137.583862,99.865723 136.506683,97.392593 135.508179,95.100098 
	C138.613647,94.414017 142.231888,93.614655 145.850128,92.815285 
z"/>
<path fill="#DA3A45" opacity="1.000000" stroke="none" 
	d="
M83.978577,114.979523 
	C83.985168,114.572479 83.991753,114.165436 84.407227,113.401466 
	C86.208412,113.070984 87.600708,113.097435 89.226395,113.266693 
	C90.310951,113.311882 91.162125,113.214256 92.413757,113.065826 
	C96.663544,113.080238 100.143074,112.100319 101.531700,108.163162 
	C102.791237,104.591995 102.130951,101.208931 98.853622,98.673325 
	C98.619133,98.491890 99.216400,97.235413 99.566711,96.605743 
	C99.706490,96.732689 99.986229,96.986374 100.151260,97.194191 
	C100.782326,97.638145 101.248352,97.874283 101.812698,98.319336 
	C102.261543,98.789917 102.612076,99.051567 102.962601,99.313225 
	C102.994545,98.866806 103.026497,98.420395 103.134659,97.624542 
	C104.555359,95.575119 102.453880,91.398590 107.001526,92.000656 
	C107.951988,92.940796 109.453346,93.733406 109.751884,94.848145 
	C110.734207,98.516129 111.385597,102.286560 111.898018,106.053841 
	C111.990463,106.733498 110.823174,107.584511 109.986237,108.747635 
	C109.330101,108.689529 108.925201,108.240196 108.507797,107.337845 
	C108.419746,103.266243 108.424271,99.642761 108.202972,96.033112 
	C108.157166,95.285912 107.271965,94.590172 106.773636,93.870712 
	C106.242455,94.358246 105.223930,94.879059 105.254601,95.328217 
	C105.605919,100.472366 106.116852,105.605614 106.732162,111.123520 
	C107.568527,111.754105 108.257973,112.002945 108.947411,112.251785 
	C108.912628,111.851852 108.950912,111.422020 108.805756,111.067253 
	C108.750587,110.932426 108.273582,110.970215 107.988838,110.929329 
	C107.992355,111.630905 107.995872,112.332474 108.119766,113.264328 
	C108.497780,113.945938 108.755417,114.397263 108.543854,114.881088 
	C100.042641,114.935562 92.010605,114.957542 83.978577,114.979523 
z"/>
<path fill="#F9D1D2" opacity="1.000000" stroke="none" 
	d="
M156.849243,111.387772 
	C155.265167,109.497818 153.681107,107.607872 152.391602,105.522812 
	C152.790787,102.493027 152.895416,99.658363 153.000061,96.823700 
	C153.008163,96.161552 153.016266,95.499413 153.032059,94.506241 
	C153.710510,93.151901 154.386459,92.131950 155.050598,91.104340 
	C155.731216,90.051270 156.400253,88.990715 157.074356,87.933441 
	C157.720871,89.039230 158.400238,90.127716 158.996414,91.260010 
	C159.210342,91.666351 159.223694,92.178299 159.373291,92.839584 
	C161.393524,93.259247 163.425491,93.681335 165.457443,94.103432 
	C165.458817,94.649940 165.460175,95.196442 165.461548,95.742950 
	C163.914291,96.040543 162.367020,96.338135 160.060028,96.954605 
	C159.157425,99.234421 158.926773,101.193764 158.890778,103.156670 
	C158.824692,106.759430 158.073517,110.898193 163.980072,110.465950 
	C164.227448,110.447838 164.591049,112.018227 164.480591,112.941925 
	C162.339706,113.103279 160.618744,113.171295 158.641220,113.117271 
	C157.872849,112.459412 157.361053,111.923592 156.849243,111.387772 
z"/>
<path fill="#C73845" opacity="1.000000" stroke="none" 
	d="
M151.994568,121.217712 
	C151.715393,121.677048 151.436218,122.136391 150.798767,122.937126 
	C149.997391,123.511238 149.554321,123.743958 149.111237,123.976669 
	C144.393738,124.269440 140.000488,123.958000 136.049591,120.573654 
	C134.527039,119.269424 131.679504,119.152390 129.426910,119.120987 
	C118.491646,118.968552 107.553413,119.017677 96.616226,119.018433 
	C91.457855,119.018784 85.832527,117.976036 83.237450,124.366226 
	C83.061615,123.071930 83.140396,122.022751 83.480865,120.926613 
	C83.812683,120.011581 83.882805,119.143501 84.421333,118.203323 
	C99.636284,118.090187 114.382835,118.049164 129.310486,118.021446 
	C129.491577,118.034760 129.851990,117.990097 130.256836,117.981857 
	C132.113373,117.648651 133.565094,117.323685 135.183334,116.821411 
	C135.519516,116.192757 135.689178,115.741402 135.892273,115.221886 
	C135.925735,115.153732 135.983063,115.018127 136.174255,115.267426 
	C137.235153,116.342072 138.104874,117.167435 139.112244,118.326408 
	C142.166290,119.402847 145.082703,120.145668 148.197556,120.753494 
	C148.635010,120.399551 148.835953,120.149986 149.296982,119.888496 
	C149.990250,119.945854 150.385406,119.984505 151.011429,120.191414 
	C151.493073,120.645683 151.743820,120.931694 151.994568,121.217712 
z"/>
<path fill="#DA3A40" opacity="1.000000" stroke="none" 
	d="
M109.013046,114.848595 
	C108.755417,114.397263 108.497780,113.945938 108.557709,113.289627 
	C111.110199,112.794029 113.345123,112.503418 115.572586,112.189285 
	C115.565125,112.165764 115.609421,112.145149 115.988609,112.091385 
	C117.813820,112.334320 119.259842,112.631020 121.230202,113.035301 
	C121.230202,106.280479 121.230202,100.137276 121.230202,93.994064 
	C122.322525,94.404251 123.414848,94.814438 124.702301,95.531425 
	C125.310562,101.534477 125.723686,107.230721 126.471085,112.936951 
	C127.473816,112.937759 128.142273,112.928589 129.073593,112.940720 
	C129.511612,112.977173 129.686783,112.992325 130.007187,113.236526 
	C130.472473,113.894737 130.792526,114.323883 130.639526,114.803513 
	C123.115334,114.852196 116.064186,114.850395 109.013046,114.848595 
z"/>
<path fill="#D4363F" opacity="1.000000" stroke="none" 
	d="
M129.861938,113.007469 
	C129.686783,112.992325 129.511612,112.977173 129.131760,112.484955 
	C129.038284,106.933083 129.149506,101.858284 129.261169,96.429367 
	C129.203796,95.369896 129.146011,94.664543 129.088211,93.959183 
	C134.019440,87.407928 139.970139,91.331863 145.744019,92.581909 
	C142.231888,93.614655 138.613647,94.414017 135.508179,95.100098 
	C136.506683,97.392593 137.583862,99.865723 138.659485,102.845695 
	C138.431183,103.786751 138.204437,104.220963 137.743484,104.438026 
	C137.085434,103.721710 136.725647,103.142883 136.224548,102.739731 
	C135.136841,101.864662 133.976944,101.079330 132.846558,100.257309 
	C132.112961,101.578613 130.988968,102.827469 130.727509,104.236389 
	C130.193359,107.114494 130.123199,110.078720 129.861938,113.007469 
z"/>
<path fill="#FAE2E2" opacity="1.000000" stroke="none" 
	d="
M121.143219,93.957718 
	C121.230202,100.137276 121.230202,106.280479 121.230202,113.035301 
	C119.259842,112.631020 117.813820,112.334320 115.758781,111.943512 
	C114.700607,111.699692 114.251450,111.549995 113.802292,111.400291 
	C113.763840,111.567665 113.725388,111.735031 113.686935,111.902405 
	C114.317978,112.005867 114.949013,112.109337 115.580055,112.212799 
	C113.345123,112.503418 111.110199,112.794029 108.437332,113.059341 
	C107.995872,112.332474 107.992355,111.630905 107.988838,110.929329 
	C108.273582,110.970215 108.750587,110.932426 108.805756,111.067253 
	C108.950912,111.422020 108.912628,111.851852 108.947411,112.251785 
	C108.257973,112.002945 107.568527,111.754105 106.930153,110.718246 
	C107.494240,109.217766 108.007263,108.504311 108.520294,107.790863 
	C108.925201,108.240196 109.330101,108.689529 109.891022,109.037155 
	C110.047050,108.935455 110.387367,109.104424 110.756409,109.466309 
	C113.126190,109.284439 115.126930,108.740692 117.082352,108.141266 
	C117.037033,108.085594 117.156860,108.164452 117.481232,107.876892 
	C117.873451,103.985146 117.704628,100.351471 118.147751,96.794029 
	C118.287766,95.669968 120.064430,94.749763 121.092072,93.736259 
	C121.092072,93.736259 121.056236,93.921364 121.143219,93.957718 
z"/>
<path fill="#E7252F" opacity="1.000000" stroke="none" 
	d="
M73.271774,128.804886 
	C71.455399,128.867538 69.635033,128.874664 67.823471,129.004440 
	C64.091484,129.271851 61.172310,128.573074 59.370991,124.604927 
	C58.410355,122.488724 56.044842,121.010254 54.405083,118.801178 
	C57.431732,119.008804 60.366699,119.659195 63.539387,120.566727 
	C66.941994,123.484200 70.106888,126.144539 73.271774,128.804886 
z"/>
<path fill="#E7252F" opacity="1.000000" stroke="none" 
	d="
M107.068123,91.732834 
	C102.453880,91.398590 104.555359,95.575119 102.798019,97.655777 
	C102.161560,98.061096 101.937973,98.085754 101.714378,98.110413 
	C101.248352,97.874283 100.782326,97.638145 100.362297,96.920593 
	C102.441803,90.754318 101.576569,88.101044 97.026566,86.068962 
	C97.425957,80.788551 98.809288,79.807281 102.602669,83.108307 
	C104.841782,85.056801 105.671295,88.625137 107.068123,91.732834 
z"/>
<path fill="#DA3A40" opacity="1.000000" stroke="none" 
	d="
M164.900513,112.848587 
	C164.591049,112.018227 164.227448,110.447838 163.980072,110.465950 
	C158.073517,110.898193 158.824692,106.759430 158.890778,103.156670 
	C158.926773,101.193764 159.157425,99.234421 159.706207,97.077423 
	C160.075241,99.026428 160.083130,101.173424 159.989868,103.316032 
	C159.878586,105.872437 160.352570,107.705330 163.441116,108.264328 
	C168.455215,109.171844 166.628250,113.716469 167.222397,116.787392 
	C167.313400,117.257790 164.423523,118.601944 162.778412,119.046532 
	C159.781937,119.856323 156.685089,120.294693 153.439163,120.614754 
	C153.876511,119.216446 154.504791,118.091408 155.555603,116.977402 
	C158.627014,116.693878 161.275909,116.399330 163.929749,115.843559 
	C163.901443,115.411346 163.868225,115.240364 164.032867,114.823463 
	C164.453964,114.001221 164.677246,113.424904 164.900513,112.848587 
z"/>
<path fill="#F9D3D4" opacity="1.000000" stroke="none" 
	d="
M73.655380,128.806030 
	C70.106888,126.144539 66.941994,123.484200 64.111092,120.415329 
	C64.828377,119.914383 65.211678,119.821968 65.594978,119.729546 
	C66.603134,120.554016 67.675148,121.312355 68.608887,122.213905 
	C73.902245,127.324814 76.877480,127.215782 82.153374,121.330711 
	C82.808167,120.982697 83.013672,120.978127 83.219177,120.973564 
	C83.140396,122.022751 83.061615,123.071930 82.930382,124.514938 
	C82.877922,124.908760 82.927475,124.937416 82.663033,125.051102 
	C82.127823,125.698105 81.857063,126.231422 81.586304,126.764740 
	C81.586296,126.764740 81.680435,126.747955 81.415726,126.806000 
	C80.743668,127.209694 80.336327,127.555344 79.928986,127.901001 
	C77.965652,128.203049 76.002327,128.505112 73.655380,128.806030 
z"/>
<path fill="#DA3A45" opacity="1.000000" stroke="none" 
	d="
M96.688171,86.059265 
	C101.576569,88.101044 102.441803,90.754318 100.197266,96.712769 
	C99.986229,96.986374 99.706490,96.732689 99.705933,96.225067 
	C100.790138,89.809776 99.186157,87.492401 93.483162,87.150116 
	C90.226685,86.954666 86.948883,87.114746 83.745155,87.114746 
	C83.464058,88.063644 83.209724,88.524597 83.208260,88.986351 
	C83.183029,96.954926 83.188942,104.923607 83.188034,112.892258 
	C82.669785,112.374352 82.151535,111.856445 81.438881,110.930786 
	C81.244484,110.523026 81.283478,110.131020 81.283478,110.131020 
	C81.329765,103.363716 81.376053,96.596420 81.276115,89.222977 
	C81.129890,88.616844 81.179886,88.156990 81.179886,88.156982 
	C85.526047,87.427261 89.872208,86.697540 94.607803,85.985779 
	C95.448090,86.019028 95.898933,86.034294 96.688171,86.059265 
z"/>
<path fill="#F5CCCA" opacity="1.000000" stroke="none" 
	d="
M65.436646,119.430511 
	C65.211678,119.821968 64.828377,119.914383 63.873375,120.158195 
	C60.366699,119.659195 57.431732,119.008804 54.177368,118.529274 
	C53.437477,118.758514 53.016987,118.816887 52.311691,119.024765 
	C50.890652,119.174263 49.754410,119.174263 48.505623,119.174263 
	C49.237953,117.589241 49.869366,116.222633 50.526707,114.799911 
	C54.907948,114.608299 59.743011,114.396835 65.207756,114.157829 
	C63.918655,114.931259 63.078033,115.435616 61.862953,116.164635 
	C63.161560,117.292702 64.219940,118.212090 65.436646,119.430511 
z"/>
<path fill="#DA3A40" opacity="1.000000" stroke="none" 
	d="
M117.127678,108.196945 
	C115.126930,108.740692 113.126190,109.284439 110.945450,109.485107 
	C115.248489,108.041351 115.555984,104.287682 116.039909,100.712669 
	C116.325401,98.603600 115.997986,96.310135 116.742264,94.411674 
	C117.065971,93.585953 119.390320,93.544548 120.949051,93.441589 
	C120.064430,94.749763 118.287766,95.669968 118.147751,96.794029 
	C117.704628,100.351471 117.873451,103.985146 117.394714,107.666153 
	C116.759964,107.416679 116.536110,107.090385 116.312248,106.764084 
	C116.176552,106.871590 116.040855,106.979095 115.905159,107.086601 
	C116.312668,107.456718 116.720169,107.826836 117.127678,108.196945 
z"/>
<path fill="#D6646B" opacity="1.000000" stroke="none" 
	d="
M155.133087,116.966370 
	C154.504791,118.091408 153.876511,119.216446 153.080078,120.620125 
	C152.911926,120.898773 152.456100,121.064232 152.225342,121.140976 
	C151.743820,120.931694 151.493073,120.645683 151.086945,119.952934 
	C150.931595,119.546204 151.077530,119.069092 151.399963,118.966537 
	C152.505951,117.607231 153.289490,116.350479 154.075989,115.073166 
	C154.078949,115.052612 154.040283,115.041954 154.382614,115.041351 
	C155.181381,115.039406 155.637833,115.038071 156.524506,115.051758 
	C159.248169,115.067642 161.541595,115.068512 163.835022,115.069389 
	C163.868225,115.240364 163.901443,115.411346 163.499176,115.819336 
	C160.420135,116.359688 157.776611,116.663025 155.133087,116.966370 
z"/>
<path fill="#D24E54" opacity="1.000000" stroke="none" 
	d="
M126.136818,112.926964 
	C125.723686,107.230721 125.310562,101.534477 124.853409,95.360466 
	C124.809380,94.882698 125.146935,94.839874 125.458977,95.156403 
	C125.857124,95.652832 125.943237,95.832733 125.960159,96.474915 
	C125.972916,102.267120 126.054863,107.597038 126.136818,112.926964 
z"/>
<path fill="#F7D0D1" opacity="1.000000" stroke="none" 
	d="
M126.029358,96.012642 
	C125.943237,95.832733 125.857124,95.652832 125.618614,95.215233 
	C125.817276,94.434135 126.168343,93.910744 127.057442,93.383148 
	C127.957275,93.369141 128.319077,93.359344 128.680878,93.349548 
	C128.680878,93.349548 128.837860,93.686127 128.963043,93.822655 
	C129.146011,94.664543 129.203796,95.369896 128.932159,96.392548 
	C127.744957,96.477440 126.887154,96.245041 126.029358,96.012642 
z"/>
<path fill="#DA3A40" opacity="1.000000" stroke="none" 
	d="
M149.287903,124.111450 
	C149.554321,123.743958 149.997391,123.511238 150.663513,123.169479 
	C150.412552,123.455696 149.938568,123.850960 149.287903,124.111450 
z"/>
<path fill="#C73845" opacity="1.000000" stroke="none" 
	d="
M80.153572,127.970749 
	C80.336327,127.555344 80.743668,127.209694 81.402222,126.760132 
	C81.228348,127.117645 80.803253,127.579079 80.153572,127.970749 
z"/>
<path fill="#D24E54" opacity="1.000000" stroke="none" 
	d="
M128.604187,93.154541 
	C128.319077,93.359344 127.957275,93.369141 127.351913,93.255630 
	C127.581398,93.074730 128.054443,93.017128 128.604187,93.154541 
z"/>
<path fill="#C73845" opacity="1.000000" stroke="none" 
	d="
M81.869186,126.632530 
	C81.857063,126.231422 82.127823,125.698105 82.665924,125.022644 
	C82.672867,125.420441 82.412476,125.960381 81.869186,126.632530 
z"/>
<path fill="#F9DFE0" opacity="1.000000" stroke="none" 
	d="
M83.393585,112.938049 
	C83.188942,104.923607 83.183029,96.954926 83.208260,88.986351 
	C83.209724,88.524597 83.464058,88.063644 83.745155,87.114746 
	C86.948883,87.114746 90.226685,86.954666 93.483162,87.150116 
	C99.186157,87.492401 100.790138,89.809776 99.566147,96.098114 
	C99.216400,97.235413 98.619133,98.491890 98.853622,98.673325 
	C102.130951,101.208931 102.791237,104.591995 101.531700,108.163162 
	C100.143074,112.100319 96.663544,113.080238 92.038399,113.003700 
	C90.506058,113.036217 89.749535,113.080048 88.993004,113.123878 
	C87.600708,113.097435 86.208412,113.070984 84.401611,113.096130 
	C83.987106,113.147720 83.599129,112.983833 83.393585,112.938049 
M98.809654,103.817039 
	C95.848671,98.620827 91.233955,101.111427 87.054138,100.635147 
	C87.054138,104.039627 87.054138,106.774292 87.054138,109.455063 
	C96.000717,110.781334 97.384613,110.192261 98.809654,103.817039 
M92.929825,90.125252 
	C91.018250,90.125252 89.106682,90.125252 87.154770,90.125252 
	C87.154770,92.820381 87.154770,94.864525 87.154770,97.280457 
	C89.156258,97.280457 90.885483,97.630470 92.376152,97.183998 
	C93.929390,96.718781 95.252518,95.485275 96.676254,94.587685 
	C95.702705,93.154381 94.729164,91.721069 92.929825,90.125252 
z"/>
<path fill="#FBEDEC" opacity="1.000000" stroke="none" 
	d="
M35.276016,93.404495 
	C37.693336,88.355629 39.783543,83.542336 42.587383,79.188637 
	C43.555733,77.685013 46.299526,77.324799 48.407570,76.842659 
	C40.378212,87.415558 39.690231,101.585541 47.985294,113.042732 
	C41.336475,114.017281 35.204071,104.776459 35.276016,93.404495 
z"/>
<path fill="#FAEDEC" opacity="1.000000" stroke="none" 
	d="
M67.743027,112.052177 
	C67.292480,111.110939 66.856430,109.955986 67.248962,109.287796 
	C72.942642,99.595566 72.455353,90.025566 66.956276,80.470108 
	C66.815643,80.225746 66.938545,79.829720 66.938545,78.642181 
	C68.161728,78.884598 69.404778,78.827538 70.304070,79.355743 
	C80.136726,85.130943 82.033531,106.782227 67.743027,112.052177 
z"/>
<path fill="#D24E54" opacity="1.000000" stroke="none" 
	d="
M83.480865,120.926613 
	C83.013672,120.978127 82.808167,120.982697 82.295547,121.018387 
	C82.475967,119.156853 82.963486,117.264206 83.714790,115.175545 
	C92.010605,114.957542 100.042641,114.935562 108.543854,114.881088 
	C116.064186,114.850395 123.115334,114.852196 130.981415,114.804146 
	C132.482269,114.767654 133.168213,114.781021 134.188202,114.878906 
	C134.967789,115.072296 135.413315,115.181168 135.858826,115.290039 
	C135.689178,115.741402 135.519516,116.192757 134.786484,116.775528 
	C132.766068,117.267982 131.309021,117.629036 129.851990,117.990097 
	C129.851990,117.990097 129.491577,118.034760 129.072800,117.679893 
	C123.491280,117.208244 118.328545,117.091461 112.912140,116.610916 
	C105.232491,116.142029 97.806297,115.963181 90.380661,115.983696 
	C88.529480,115.988808 86.680077,116.637192 84.598709,117.131454 
	C84.229347,117.607140 84.091141,117.941284 83.952927,118.275421 
	C83.882805,119.143501 83.812683,120.011581 83.480865,120.926613 
z"/>
<path fill="#ED202A" opacity="1.000000" stroke="none" 
	d="
M75.425964,113.118820 
	C77.343925,113.218338 78.882492,113.373734 81.420547,113.630081 
	C79.917160,115.433403 79.266281,116.548187 78.317734,117.273918 
	C76.881859,118.372505 74.008850,120.173683 73.868752,119.996666 
	C71.860847,117.459641 71.671623,114.926292 75.425964,113.118820 
z"/>
<path fill="#ED202A" opacity="1.000000" stroke="none" 
	d="
M81.107010,87.827454 
	C81.179886,88.156990 81.129890,88.616844 81.106995,88.848083 
	C80.181694,88.149155 79.279297,87.218987 78.376892,86.288826 
	C78.760223,85.973198 79.143555,85.657562 79.526894,85.341934 
	C80.029305,86.060593 80.531715,86.779251 81.107010,87.827454 
z"/>
<path fill="#ED202A" opacity="1.000000" stroke="none" 
	d="
M79.820518,106.919708 
	C79.663490,106.544861 79.678352,106.167503 79.721054,105.793335 
	C79.722664,105.779236 79.994255,105.795959 80.140030,105.798325 
	C80.092407,106.171463 80.044777,106.544609 79.820518,106.919708 
z"/>
<path fill="#ED202A" opacity="1.000000" stroke="none" 
	d="
M81.066765,110.052063 
	C81.283478,110.131020 81.244484,110.523026 81.257690,110.719109 
	C80.776855,110.692451 80.282806,110.469704 79.788757,110.246964 
	C80.142525,110.155678 80.496284,110.064392 81.066765,110.052063 
z"/>
<path fill="#EA2028" opacity="1.000000" stroke="none" 
	d="
M133.854141,114.794388 
	C133.168213,114.781021 132.482269,114.767654 131.454453,114.753662 
	C130.792526,114.323883 130.472473,113.894737 130.007187,113.236526 
	C130.123199,110.078720 130.193359,107.114494 130.727509,104.236389 
	C130.988968,102.827469 132.112961,101.578613 132.846558,100.257309 
	C133.976944,101.079330 135.136841,101.864662 136.224548,102.739731 
	C136.725647,103.142883 137.085434,103.721710 137.880981,104.795326 
	C138.514160,106.564735 138.775650,107.759697 139.037140,108.954666 
	C138.150391,109.311325 137.263626,109.667984 136.178848,110.641220 
	C135.271927,112.436653 134.563034,113.615524 133.854141,114.794388 
z"/>
<path fill="#D43137" opacity="1.000000" stroke="none" 
	d="
M139.373505,109.129829 
	C138.775650,107.759697 138.514160,106.564735 138.115173,105.012474 
	C138.204437,104.220963 138.431183,103.786751 138.836884,103.174484 
	C141.366104,103.712570 143.794571,104.248413 146.034409,105.219337 
	C147.189423,105.720016 148.009018,106.994469 148.980164,107.919281 
	C147.798630,108.774605 146.667999,110.238396 145.423630,110.342506 
	C143.561020,110.498352 141.618423,109.698418 139.373505,109.129829 
z"/>
<path fill="#F0262E" opacity="1.000000" stroke="none" 
	d="
M152.646240,96.978043 
	C152.895416,99.658363 152.790787,102.493027 152.343948,105.166466 
	C150.844925,103.997047 149.798615,102.806328 148.505356,102.023537 
	C146.575684,100.855492 144.471954,99.974976 142.442291,98.972130 
	C142.568283,98.358887 142.694290,97.745636 142.820282,97.132393 
	C145.977661,97.132393 149.135040,97.132393 152.646240,96.978043 
z"/>
<path fill="#DA3A40" opacity="1.000000" stroke="none" 
	d="
M134.188202,114.878906 
	C134.563034,113.615524 135.271927,112.436653 136.066452,110.915451 
	C140.495468,114.416145 145.275604,114.100433 150.604401,112.339264 
	C150.973419,113.412514 150.975708,114.198936 150.530579,114.972809 
	C146.394562,115.282715 142.705963,115.605156 138.860260,115.696350 
	C137.796463,115.316116 136.889755,115.167122 135.983063,115.018127 
	C135.983063,115.018127 135.925735,115.153732 135.892273,115.221886 
	C135.413315,115.181168 134.967789,115.072296 134.188202,114.878906 
z"/>
<path fill="#DF2E38" opacity="1.000000" stroke="none" 
	d="
M156.094269,115.036743 
	C155.637833,115.038071 155.181381,115.039406 154.374649,114.631302 
	C153.995453,113.403603 153.966553,112.585342 153.937653,111.767075 
	C154.696945,111.576813 155.456223,111.386543 156.532379,111.292023 
	C157.361053,111.923592 157.872849,112.459412 158.424316,113.295311 
	C157.674072,114.075836 156.884171,114.556290 156.094269,115.036743 
z"/>
<path fill="#EA2028" opacity="1.000000" stroke="none" 
	d="
M153.645660,111.733749 
	C153.966553,112.585342 153.995453,113.403603 154.032318,114.631912 
	C154.040283,115.041954 154.078949,115.052612 153.717865,115.047546 
	C152.878006,115.028595 152.399261,115.014709 151.684845,114.998901 
	C151.449188,114.996994 150.977997,114.985352 150.977997,114.985352 
	C150.975708,114.198936 150.973419,113.412514 150.964935,112.232147 
	C151.757034,111.792267 152.555344,111.746346 153.645660,111.733749 
z"/>
<path fill="#FCE8E8" opacity="1.000000" stroke="none" 
	d="
M108.507797,107.337845 
	C108.007263,108.504311 107.494240,109.217766 106.783234,110.336494 
	C106.116852,105.605614 105.605919,100.472366 105.254601,95.328217 
	C105.223930,94.879059 106.242455,94.358246 106.773636,93.870712 
	C107.271965,94.590172 108.157166,95.285912 108.202972,96.033112 
	C108.424271,99.642761 108.419746,103.266243 108.507797,107.337845 
z"/>
<path fill="#D24E54" opacity="1.000000" stroke="none" 
	d="
M89.226395,113.266693 
	C89.749535,113.080048 90.506058,113.036217 91.637939,113.054504 
	C91.162125,113.214256 90.310951,113.311882 89.226395,113.266693 
z"/>
<path fill="#ED202A" opacity="1.000000" stroke="none" 
	d="
M101.812698,98.319336 
	C101.937973,98.085754 102.161560,98.061096 102.721802,98.005203 
	C103.026497,98.420395 102.994545,98.866806 102.962601,99.313225 
	C102.612076,99.051567 102.261543,98.789917 101.812698,98.319336 
z"/>
<path fill="#D24E54" opacity="1.000000" stroke="none" 
	d="
M156.524506,115.051758 
	C156.884171,114.556290 157.674072,114.075836 158.680878,113.417351 
	C160.618744,113.171295 162.339706,113.103279 164.480591,112.941925 
	C164.677246,113.424904 164.453964,114.001221 164.032867,114.823463 
	C161.541595,115.068512 159.248169,115.067642 156.524506,115.051758 
z"/>
<path fill="#ED1C2B" opacity="1.000000" stroke="none" 
	d="
M150.530579,114.972809 
	C150.977997,114.985352 151.449188,114.996994 151.647797,115.343216 
	C151.590103,116.815987 151.333817,117.942535 151.077530,119.069092 
	C151.077530,119.069092 150.931595,119.546204 150.856079,119.784683 
	C150.385406,119.984505 149.990250,119.945854 149.230377,119.730087 
	C148.576797,119.998138 148.287949,120.443321 147.999100,120.888504 
	C145.082703,120.145668 142.166290,119.402847 139.121048,117.982887 
	C139.000595,116.846367 139.008987,116.386978 139.017380,115.927597 
	C142.705963,115.605156 146.394562,115.282715 150.530579,114.972809 
z"/>
<path fill="#FCAEB6" opacity="1.000000" stroke="none" 
	d="
M113.165802,116.974670 
	C118.328545,117.091461 123.491280,117.208244 128.891693,117.666580 
	C114.382835,118.049164 99.636284,118.090187 84.421341,118.203323 
	C84.091141,117.941284 84.229347,117.607140 85.079391,117.137054 
	C94.916084,116.992294 104.040939,116.983482 113.165802,116.974670 
z"/>
<path fill="#EA2028" opacity="1.000000" stroke="none" 
	d="
M138.860260,115.696350 
	C139.008987,116.386978 139.000595,116.846367 138.983398,117.649269 
	C138.104874,117.167435 137.235153,116.342072 136.174255,115.267426 
	C136.889755,115.167122 137.796463,115.316116 138.860260,115.696350 
z"/>
<path fill="#FCAEB6" opacity="1.000000" stroke="none" 
	d="
M130.256836,117.981857 
	C131.309021,117.629036 132.766068,117.267982 134.619949,116.952820 
	C133.565094,117.323685 132.113373,117.648651 130.256836,117.981857 
z"/>
<path fill="#ED202A" opacity="1.000000" stroke="none" 
	d="
M148.197556,120.753494 
	C148.287949,120.443321 148.576797,119.998138 148.932251,119.711380 
	C148.835953,120.149986 148.635010,120.399551 148.197556,120.753494 
z"/>
<path fill="#FDEBE9" opacity="1.000000" stroke="none" 
	d="
M125.960159,96.474915 
	C126.887154,96.245041 127.744957,96.477440 128.931747,96.746658 
	C129.149506,101.858284 129.038284,106.933083 128.868896,112.463654 
	C128.142273,112.928589 127.473816,112.937759 126.471085,112.936951 
	C126.054863,107.597038 125.972916,102.267120 125.960159,96.474915 
z"/>
<path fill="#FCE8E8" opacity="1.000000" stroke="none" 
	d="
M115.572586,112.189285 
	C114.949013,112.109337 114.317978,112.005867 113.686935,111.902405 
	C113.725388,111.735031 113.763840,111.567665 113.802292,111.400291 
	C114.251450,111.549995 114.700607,111.699692 115.379593,111.997269 
	C115.609421,112.145149 115.565125,112.165764 115.572586,112.189285 
z"/>
<path fill="#FEE1D7" opacity="1.000000" stroke="none" 
	d="
M155.555603,116.977402 
	C157.776611,116.663025 160.420135,116.359688 163.494232,116.080566 
	C161.275909,116.399330 158.627014,116.693878 155.555603,116.977402 
z"/>
<path fill="#ED202A" opacity="1.000000" stroke="none" 
	d="
M117.082352,108.141273 
	C116.720169,107.826836 116.312668,107.456718 115.905159,107.086601 
	C116.040855,106.979095 116.176552,106.871590 116.312248,106.764084 
	C116.536110,107.090385 116.759964,107.416679 117.070343,107.953720 
	C117.156860,108.164452 117.037033,108.085594 117.082352,108.141273 
z"/>
<path fill="#DA3A40" opacity="1.000000" stroke="none" 
	d="
M151.399963,118.966537 
	C151.333817,117.942535 151.590103,116.815987 151.883453,115.345123 
	C152.399261,115.014709 152.878006,115.028595 153.714905,115.068100 
	C153.289490,116.350479 152.505951,117.607231 151.399963,118.966537 
z"/>
<path fill="#DF2E38" opacity="1.000000" stroke="none" 
	d="
M98.857651,104.209183 
	C97.384613,110.192261 96.000717,110.781334 87.054138,109.455063 
	C87.054138,106.774292 87.054138,104.039627 87.054138,100.635147 
	C91.233955,101.111427 95.848671,98.620827 98.857651,104.209183 
z"/>
<path fill="#D92F36" opacity="1.000000" stroke="none" 
	d="
M93.342720,90.206512 
	C94.729164,91.721069 95.702705,93.154381 96.676254,94.587685 
	C95.252518,95.485275 93.929390,96.718781 92.376152,97.183998 
	C90.885483,97.630470 89.156258,97.280457 87.154770,97.280457 
	C87.154770,94.864525 87.154770,92.820381 87.154770,90.125252 
	C89.106682,90.125252 91.018250,90.125252 93.342720,90.206512 
z"/>
<path fill="#FEE1D7" opacity="1.000000" stroke="none" 
	d="
M112.912140,116.610916 
	C104.040939,116.983482 94.916084,116.992294 85.310539,116.995506 
	C86.680077,116.637192 88.529480,115.988808 90.380661,115.983696 
	C97.806297,115.963181 105.232491,116.142029 112.912140,116.610916 
z"/>
</svg>