<svg version="1.1" id="Layer_1" xmlns="http://www.w3.org/2000/svg" xmlns:xlink="http://www.w3.org/1999/xlink" x="0px" y="0px"
	 width="100%" viewBox="0 0 141 141" enable-background="new 0 0 141 141" xml:space="preserve">
<path fill="#C63739" opacity="1.000000" stroke="none" 
	d="
M79.000000,142.000000 
	C52.689583,142.000000 26.879166,142.000000 1.034375,142.000000 
	C1.034375,95.064629 1.034375,48.129230 1.034375,1.096915 
	C47.893520,1.096915 94.787308,1.096915 141.840546,1.096915 
	C141.840546,47.999569 141.840546,94.999733 141.840546,142.000000 
	C121.129616,142.000000 100.314812,142.000000 79.000000,142.000000 
M66.019539,61.995125 
	C66.019539,61.995125 66.133301,62.022751 65.694138,62.317402 
	C65.467903,62.585922 65.241676,62.854443 65.001701,63.004559 
	C65.001701,63.004559 65.120117,62.990860 64.703888,63.424805 
	C64.479996,63.973988 64.256104,64.523170 64.006378,65.016777 
	C64.006378,65.016777 64.067284,65.023621 63.266949,65.185318 
	C61.994572,65.674835 60.722198,66.164352 59.267757,66.511497 
	C59.267757,66.511497 59.331387,66.289291 59.674652,65.663200 
	C59.770000,65.445381 59.865345,65.227562 59.727310,64.446960 
	C59.089348,64.001717 58.451389,63.556465 57.932926,63.092583 
	C57.932926,63.092583 57.950287,63.212269 57.630714,62.762524 
	C57.348972,62.528061 57.067230,62.293594 56.900108,62.072556 
	C56.900108,62.072556 56.885307,62.187012 56.691521,61.510056 
	C51.907646,56.698746 44.741581,57.456581 42.010815,63.007702 
	C42.010815,63.007702 42.071529,63.012566 41.652264,63.303879 
	C41.439449,63.567574 41.226635,63.831268 41.038319,64.034554 
	C41.038319,64.034554 41.087605,64.077217 40.396938,63.934395 
	C39.154404,62.709713 37.911865,61.485031 35.950001,60.337715 
	C30.389915,59.578793 30.865250,65.797874 27.514296,67.590454 
	C21.633425,60.022053 21.633425,60.022053 17.438583,61.461254 
	C18.493431,63.542271 19.188065,65.851273 20.620819,67.530479 
	C23.084932,70.418457 23.145563,72.550186 20.597628,75.596260 
	C18.976271,77.534599 18.755735,80.644684 18.240696,83.749489 
	C19.482487,83.470345 20.724279,83.191200 21.985449,82.986298 
	C21.985449,82.986298 21.911158,83.005463 22.326893,82.624466 
	C22.524807,82.306465 22.722721,81.988457 22.903002,81.351082 
	C22.903002,81.351082 23.091831,81.092911 23.430435,80.703499 
	C23.593031,80.401886 23.755625,80.100273 23.910051,79.900711 
	C23.910051,79.900711 23.808126,79.891045 24.554140,79.678131 
	C25.874739,78.829559 27.195337,77.980980 28.771526,77.270065 
	C28.771526,77.270065 28.817257,77.556747 28.587727,78.270798 
	C29.417542,79.512962 30.247358,80.755135 31.483631,82.215919 
	C31.722467,82.424225 31.887640,82.680084 32.246346,83.557983 
	C33.840878,83.419960 35.435410,83.281937 37.388214,82.959976 
	C37.388214,82.959976 37.788994,82.920403 38.525303,82.815376 
	C39.984806,82.554146 41.444313,82.292923 43.364811,82.671074 
	C48.413166,85.065361 53.307755,84.408897 58.420357,81.599617 
	C58.620903,81.371002 58.781731,81.117218 58.898491,80.923607 
	C58.898491,80.923607 58.813213,80.917862 59.253849,80.382004 
	C59.148396,78.267242 59.042946,76.152481 59.325615,73.807343 
	C59.325615,73.807343 59.771572,73.737801 60.427197,74.170517 
	C60.961807,75.784447 61.403835,77.437172 62.058857,79.000656 
	C62.634712,80.375191 63.448997,81.649849 64.551445,83.018570 
	C64.551445,83.018570 64.913536,83.180443 65.176079,83.624001 
	C66.449486,83.367073 67.722900,83.110138 68.985703,82.960480 
	C68.985703,82.960480 68.878479,82.949425 69.534599,82.631386 
	C69.956291,77.013245 70.377975,71.395096 70.935242,65.930481 
	C70.935242,65.930481 70.777199,65.800209 71.627739,65.898163 
	C75.562195,65.793251 75.989754,68.273415 76.069908,71.441887 
	C76.147675,74.515625 74.868912,78.320961 79.125580,79.850441 
	C79.125580,79.850441 79.110710,79.706596 79.393486,80.190956 
	C79.670189,80.439331 79.946884,80.687714 80.104767,80.927254 
	C80.104767,80.927254 80.120667,80.809166 80.276840,81.524498 
	C84.285599,86.162445 91.002815,86.295418 94.917999,81.934395 
	C94.917999,81.934395 94.796989,81.944527 95.259842,81.665428 
	C95.505188,81.403992 95.750534,81.142563 95.977615,80.955559 
	C95.977615,80.955559 95.903893,80.934608 96.587265,81.033760 
	C97.783531,81.666351 98.979797,82.298943 100.972923,83.009239 
	C107.514030,84.605774 106.641327,77.097282 110.468208,75.356323 
	C117.442772,83.214981 117.442772,83.214981 121.463768,82.043839 
	C119.075256,78.345253 116.785049,74.798882 114.663742,71.514061 
	C116.703392,68.154572 118.755890,64.773926 120.952126,61.156521 
	C113.773483,58.510990 114.695007,66.309654 110.604324,67.115761 
	C107.678978,64.715561 107.549309,57.611286 100.547386,61.525421 
	C99.363495,62.349083 98.179596,63.172749 97.002197,63.998970 
	C97.002197,63.998970 97.002937,64.007034 96.788086,63.582729 
	C96.602951,63.316105 96.365112,63.110420 95.609436,62.799107 
	C95.306442,62.628803 95.103020,62.377800 94.623528,61.640949 
	C94.304848,61.458942 93.986160,61.276936 93.353157,61.106873 
	C93.353157,61.106873 93.097488,60.923634 92.740364,60.316635 
	C90.228851,58.578789 87.722321,56.179134 85.149467,60.167671 
	C85.149467,60.167671 85.231216,60.213230 84.487862,60.131802 
	C83.350899,60.809307 82.213943,61.486809 81.072533,62.090405 
	C81.072533,62.090405 81.145454,62.103218 80.456871,61.990662 
	C79.238960,61.426605 78.021049,60.862549 76.180557,59.917496 
	C74.032204,60.018723 71.883842,60.119946 69.100815,60.374653 
	C68.712494,60.568909 68.324173,60.763161 67.723892,61.153431 
	C67.723892,61.153431 67.436348,61.127625 66.897766,61.366104 
	C66.595840,61.613705 66.293907,61.861305 66.019539,61.995125 
z"/>
<path fill="#FEEFEF" opacity="1.000000" stroke="none" 
	d="
M59.771576,73.737801 
	C59.771572,73.737801 59.325615,73.807343 58.677834,73.856201 
	C53.727249,73.905060 49.424446,73.905060 44.382263,73.905060 
	C47.966309,81.199829 52.917824,78.787079 57.594433,77.493591 
	C58.062534,78.808769 58.437874,79.863319 58.813217,80.917862 
	C58.813213,80.917862 58.898491,80.923607 58.659733,80.974579 
	C58.317444,81.326324 58.213913,81.627090 58.110382,81.927856 
	C53.307755,84.408897 48.413166,85.065361 43.086544,82.000885 
	C38.065567,76.061577 37.563129,71.023544 41.087605,64.077217 
	C41.087605,64.077217 41.038319,64.034554 41.288940,63.985134 
	C41.716881,63.627998 41.894203,63.320282 42.071526,63.012566 
	C42.071529,63.012566 42.010815,63.007702 42.361565,62.894257 
	C47.288082,59.036800 52.044399,59.602417 56.885307,62.187012 
	C56.885307,62.187012 56.900108,62.072556 56.945850,62.338402 
	C57.311157,62.806923 57.630722,63.009594 57.950287,63.212269 
	C57.950287,63.212269 57.932926,63.092583 57.929680,63.386826 
	C58.266933,64.127686 58.607430,64.574295 58.958347,65.247620 
	C58.983974,65.792992 59.104847,66.064651 59.331387,66.289291 
	C59.331387,66.289291 59.267757,66.511497 59.454762,66.964569 
	C59.685036,69.524361 59.728306,71.631081 59.771576,73.737801 
M53.986019,66.565407 
	C49.271133,62.931614 46.133183,63.955605 45.271797,69.803009 
	C47.750713,69.803009 50.194271,69.977219 52.581329,69.686928 
	C53.219830,69.609276 53.685802,68.112961 53.986019,66.565407 
z"/>
<path fill="#FDF1F1" opacity="1.000000" stroke="none" 
	d="
M94.999168,62.046101 
	C95.103020,62.377800 95.306442,62.628803 95.919769,63.115032 
	C96.414742,63.720875 96.672356,63.912903 97.002937,64.007034 
	C97.002937,64.007034 97.002197,63.998970 97.119331,64.365631 
	C100.650002,70.450348 99.857185,75.822449 95.903893,80.934608 
	C95.903893,80.934608 95.977615,80.955559 95.714066,81.004417 
	C95.232674,81.350357 95.014832,81.647446 94.796989,81.944527 
	C94.796989,81.944527 94.917999,81.934395 94.542862,81.945312 
	C89.251137,84.442245 84.620804,83.422905 80.120667,80.809166 
	C80.120667,80.809166 80.104767,80.927254 80.068489,80.652893 
	C79.725044,80.154556 79.417877,79.930580 79.110710,79.706596 
	C79.110710,79.706596 79.125580,79.850441 79.112152,79.460449 
	C75.500671,72.898376 76.641266,67.297928 81.145454,62.103218 
	C81.145454,62.103218 81.072533,62.090405 81.402237,62.053604 
	C82.898361,61.415611 84.064789,60.814419 85.231216,60.213230 
	C85.231216,60.213230 85.149467,60.167671 85.562370,60.197906 
	C88.349342,60.459972 90.723419,60.691803 93.097488,60.923634 
	C93.097488,60.923634 93.353157,61.106873 93.655899,61.351707 
	C94.305481,61.746395 94.652328,61.896248 94.999168,62.046101 
M84.365143,66.220016 
	C83.919312,68.907928 82.981964,71.625755 83.143257,74.276726 
	C83.383125,78.219101 87.473824,80.303925 90.740982,78.601654 
	C93.503784,77.162163 94.764587,70.886520 92.745865,67.395714 
	C90.865089,64.143463 88.166359,63.374397 84.365143,66.220016 
z"/>
<path fill="#FDEFEE" opacity="1.000000" stroke="none" 
	d="
M100.956215,61.013252 
	C107.549309,57.611286 107.678978,64.715561 110.604324,67.115761 
	C114.695007,66.309654 113.773483,58.510990 120.952126,61.156521 
	C118.755890,64.773926 116.703392,68.154572 114.663742,71.514061 
	C116.785049,74.798882 119.075256,78.345253 121.463768,82.043839 
	C117.442772,83.214981 117.442772,83.214981 110.468208,75.356323 
	C106.641327,77.097282 107.514030,84.605774 100.625671,82.629715 
	C102.315651,78.689407 104.352882,75.128624 106.301498,71.722717 
	C104.573387,68.260384 102.764801,64.636818 100.956215,61.013252 
z"/>
<path fill="#FDEFEF" opacity="1.000000" stroke="none" 
	d="
M37.788994,82.920403 
	C37.788994,82.920403 37.388214,82.959976 36.789871,82.999466 
	C34.787399,83.020462 33.383274,83.001976 31.979151,82.983498 
	C31.887640,82.680084 31.722467,82.424225 31.266804,81.777702 
	C30.305737,80.078575 29.561495,78.817657 28.817257,77.556747 
	C28.817257,77.556747 28.771526,77.270065 28.502960,76.960709 
	C24.700146,74.918350 24.871616,78.248337 23.808126,79.891045 
	C23.808126,79.891045 23.910051,79.900711 23.650190,79.966385 
	C23.290829,80.385681 23.191330,80.739296 23.091831,81.092911 
	C23.091831,81.092911 22.903002,81.351082 22.654957,81.654968 
	C22.241663,82.307724 22.076412,82.656593 21.911160,83.005463 
	C21.911158,83.005463 21.985449,82.986298 21.569876,82.985817 
	C20.071890,83.066673 18.989475,83.148010 17.907063,83.229347 
	C18.755735,80.644684 18.976271,77.534599 20.597628,75.596260 
	C23.145563,72.550186 23.084932,70.418457 20.620819,67.530479 
	C19.188065,65.851273 18.493431,63.542271 17.438583,61.461254 
	C21.633425,60.022053 21.633425,60.022053 27.514296,67.590454 
	C30.865250,65.797874 30.389915,59.578793 36.361656,60.644371 
	C35.021160,64.534637 33.269009,68.118256 31.633818,71.462654 
	C33.644039,75.204643 35.716515,79.062523 37.788994,82.920403 
z"/>
<path fill="#FEF1F1" opacity="1.000000" stroke="none" 
	d="
M67.436348,61.127625 
	C67.436348,61.127625 67.723892,61.153431 68.174889,61.056396 
	C68.995758,60.713299 69.365623,60.467236 69.735489,60.221176 
	C71.883842,60.119946 74.032204,60.018723 76.536873,60.495773 
	C77.026344,62.953171 77.304504,64.766235 74.323578,64.565971 
	C73.174278,64.488754 71.961212,65.360710 70.777199,65.800217 
	C70.777199,65.800209 70.935242,65.930481 70.550751,66.096817 
	C69.737000,71.825241 69.307739,77.387337 68.878479,82.949425 
	C68.878479,82.949425 68.985703,82.960480 68.583206,82.957092 
	C67.091644,83.029289 66.002594,83.104866 64.913536,83.180443 
	C64.913536,83.180443 64.551445,83.018570 64.285896,82.530807 
	C64.035995,76.369896 64.051636,70.696762 64.067284,65.023621 
	C64.067284,65.023621 64.006378,65.016777 64.282715,64.880585 
	C64.746071,64.159882 64.933090,63.575371 65.120117,62.990860 
	C65.120117,62.990860 65.001701,63.004559 65.277237,62.976051 
	C65.746284,62.639278 65.939796,62.331017 66.133301,62.022751 
	C66.133301,62.022751 66.019539,61.995125 66.306931,61.988632 
	C66.875000,61.697300 67.155678,61.412464 67.436348,61.127625 
z"/>
<path fill="#B64448" opacity="1.000000" stroke="none" 
	d="
M38.157150,82.867889 
	C35.716515,79.062523 33.644039,75.204643 31.633818,71.462654 
	C33.269009,68.118256 35.021160,64.534637 36.721321,60.605686 
	C37.911865,61.485031 39.154404,62.709713 40.742271,64.005806 
	C37.563129,71.023544 38.065567,76.061577 42.856049,81.681198 
	C41.444313,82.292923 39.984806,82.554146 38.157150,82.867889 
z"/>
<path fill="#B4474A" opacity="1.000000" stroke="none" 
	d="
M100.751801,61.269337 
	C102.764801,64.636818 104.573387,68.260384 106.301498,71.722717 
	C104.352882,75.128624 102.315651,78.689407 100.227249,82.590866 
	C98.979797,82.298943 97.783531,81.666351 96.245575,80.984184 
	C99.857185,75.822449 100.650002,70.450348 97.116081,64.364349 
	C98.179596,63.172749 99.363495,62.349083 100.751801,61.269337 
z"/>
<path fill="#B34347" opacity="1.000000" stroke="none" 
	d="
M59.033531,80.649933 
	C58.437874,79.863319 58.062534,78.808769 57.594433,77.493591 
	C52.917824,78.787079 47.966309,81.199829 44.382263,73.905060 
	C49.424446,73.905060 53.727249,73.905060 58.483772,73.971390 
	C59.042946,76.152481 59.148396,78.267242 59.033531,80.649933 
z"/>
<path fill="#B4474A" opacity="1.000000" stroke="none" 
	d="
M63.667114,65.104469 
	C64.051636,70.696762 64.035995,76.369896 64.089165,82.505829 
	C63.448997,81.649849 62.634712,80.375191 62.058857,79.000656 
	C61.403835,77.437172 60.961807,75.784447 60.099388,73.954163 
	C59.728306,71.631081 59.685036,69.524361 59.545792,67.035759 
	C60.722198,66.164352 61.994572,65.674835 63.667114,65.104469 
z"/>
<path fill="#B4474A" opacity="1.000000" stroke="none" 
	d="
M71.202469,65.849190 
	C71.961212,65.360710 73.174278,64.488754 74.323578,64.565971 
	C77.304504,64.766235 77.026344,62.953171 76.848160,60.686272 
	C78.021049,60.862549 79.238960,61.426605 80.801163,62.046940 
	C76.641266,67.297928 75.500671,72.898376 79.183304,79.447601 
	C74.868912,78.320961 76.147675,74.515625 76.069908,71.441887 
	C75.989754,68.273415 75.562195,65.793251 71.202469,65.849190 
z"/>
<path fill="#B64448" opacity="1.000000" stroke="none" 
	d="
M56.788414,61.848534 
	C52.044399,59.602417 47.288082,59.036800 42.377880,62.919975 
	C44.741581,57.456581 51.907646,56.698746 56.788414,61.848534 
z"/>
<path fill="#B4474A" opacity="1.000000" stroke="none" 
	d="
M80.198753,81.166832 
	C84.620804,83.422905 89.251137,84.442245 94.534866,81.885124 
	C91.002815,86.295418 84.285599,86.162445 80.198753,81.166832 
z"/>
<path fill="#B4474A" opacity="1.000000" stroke="none" 
	d="
M69.206543,82.790405 
	C69.307739,77.387337 69.737000,71.825241 70.482964,66.020050 
	C70.377975,71.395096 69.956291,77.013245 69.206543,82.790405 
z"/>
<path fill="#B4474A" opacity="1.000000" stroke="none" 
	d="
M92.918930,60.620132 
	C90.723419,60.691803 88.349342,60.459972 85.571136,60.243874 
	C87.722321,56.179134 90.228851,58.578789 92.918930,60.620132 
z"/>
<path fill="#B64448" opacity="1.000000" stroke="none" 
	d="
M24.181133,79.784592 
	C24.871616,78.248337 24.700146,74.918350 28.375164,76.891876 
	C27.195337,77.980980 25.874739,78.829559 24.181133,79.784592 
z"/>
<path fill="#B64448" opacity="1.000000" stroke="none" 
	d="
M28.702492,77.913773 
	C29.561495,78.817657 30.305737,80.078575 31.063576,81.668396 
	C30.247358,80.755135 29.417542,79.512962 28.702492,77.913773 
z"/>
<path fill="#B64448" opacity="1.000000" stroke="none" 
	d="
M32.112747,83.270737 
	C33.383274,83.001976 34.787399,83.020462 36.610733,83.091431 
	C35.435410,83.281937 33.840878,83.419960 32.112747,83.270737 
z"/>
<path fill="#B64448" opacity="1.000000" stroke="none" 
	d="
M18.073879,83.489418 
	C18.989475,83.148010 20.071890,83.066673 21.560188,82.948700 
	C20.724279,83.191200 19.482487,83.470345 18.073879,83.489418 
z"/>
<path fill="#B4474A" opacity="1.000000" stroke="none" 
	d="
M84.859543,60.172516 
	C84.064789,60.814419 82.898361,61.415611 81.404457,62.090557 
	C82.213943,61.486809 83.350899,60.809307 84.859543,60.172516 
z"/>
<path fill="#B4474A" opacity="1.000000" stroke="none" 
	d="
M65.044807,83.402222 
	C66.002594,83.104866 67.091644,83.029289 68.588501,82.903458 
	C67.722900,83.110138 66.449486,83.367073 65.044807,83.402222 
z"/>
<path fill="#B64448" opacity="1.000000" stroke="none" 
	d="
M58.947922,65.020905 
	C58.607430,64.574295 58.266933,64.127686 57.869934,63.396145 
	C58.451389,63.556465 59.089348,64.001717 59.591103,64.730408 
	C59.285904,65.016205 59.116913,65.018555 58.947922,65.020905 
z"/>
<path fill="#B4474A" opacity="1.000000" stroke="none" 
	d="
M64.912003,63.207832 
	C64.933090,63.575371 64.746071,64.159882 64.295639,64.908371 
	C64.256104,64.523170 64.479996,63.973988 64.912003,63.207832 
z"/>
<path fill="#B4474A" opacity="1.000000" stroke="none" 
	d="
M58.958347,65.247620 
	C59.116913,65.018555 59.285904,65.016205 59.707794,65.011795 
	C59.865345,65.227562 59.770000,65.445381 59.503021,65.976242 
	C59.104847,66.064651 58.983974,65.792992 58.958347,65.247620 
z"/>
<path fill="#B4474A" opacity="1.000000" stroke="none" 
	d="
M96.895508,63.794884 
	C96.672356,63.912903 96.414742,63.720875 96.152336,63.198318 
	C96.365112,63.110420 96.602951,63.316105 96.895508,63.794884 
z"/>
<path fill="#B64448" opacity="1.000000" stroke="none" 
	d="
M41.861893,63.158218 
	C41.894203,63.320282 41.716881,63.627998 41.276691,64.015335 
	C41.226635,63.831268 41.439449,63.567574 41.861893,63.158218 
z"/>
<path fill="#B4474A" opacity="1.000000" stroke="none" 
	d="
M65.913727,62.170078 
	C65.939796,62.331017 65.746284,62.639278 65.284111,63.035252 
	C65.241676,62.854443 65.467903,62.585922 65.913727,62.170078 
z"/>
<path fill="#B64448" opacity="1.000000" stroke="none" 
	d="
M23.261131,80.898209 
	C23.191330,80.739296 23.290829,80.385681 23.654274,79.915359 
	C23.755625,80.100273 23.593031,80.401886 23.261131,80.898209 
z"/>
<path fill="#B4474A" opacity="1.000000" stroke="none" 
	d="
M79.252098,79.948776 
	C79.417877,79.930580 79.725044,80.154556 80.127899,80.657318 
	C79.946884,80.687714 79.670189,80.439331 79.252098,79.948776 
z"/>
<path fill="#B34347" opacity="1.000000" stroke="none" 
	d="
M58.265373,81.763733 
	C58.213913,81.627090 58.317444,81.326324 58.661903,80.931900 
	C58.781731,81.117218 58.620903,81.371002 58.265373,81.763733 
z"/>
<path fill="#B4474A" opacity="1.000000" stroke="none" 
	d="
M95.028412,81.804977 
	C95.014832,81.647446 95.232674,81.350357 95.723206,80.967201 
	C95.750534,81.142563 95.505188,81.403992 95.028412,81.804977 
z"/>
<path fill="#B64448" opacity="1.000000" stroke="none" 
	d="
M22.119026,82.814964 
	C22.076412,82.656593 22.241663,82.307724 22.663774,81.814651 
	C22.722721,81.988457 22.524807,82.306465 22.119026,82.814964 
z"/>
<path fill="#B64448" opacity="1.000000" stroke="none" 
	d="
M57.790501,62.987396 
	C57.630722,63.009594 57.311157,62.806923 56.888542,62.331692 
	C57.067230,62.293594 57.348972,62.528061 57.790501,62.987396 
z"/>
<path fill="#B4474A" opacity="1.000000" stroke="none" 
	d="
M94.811348,61.843525 
	C94.652328,61.896248 94.305481,61.746395 93.813065,61.345734 
	C93.986160,61.276936 94.304848,61.458942 94.811348,61.843525 
z"/>
<path fill="#B4474A" opacity="1.000000" stroke="none" 
	d="
M67.167053,61.246864 
	C67.155678,61.412464 66.875000,61.697300 66.293152,62.045521 
	C66.293907,61.861305 66.595840,61.613705 67.167053,61.246864 
z"/>
<path fill="#B4474A" opacity="1.000000" stroke="none" 
	d="
M69.418152,60.297913 
	C69.365623,60.467236 68.995758,60.713299 68.280869,60.958385 
	C68.324173,60.763161 68.712494,60.568909 69.418152,60.297913 
z"/>
<path fill="#B35053" opacity="1.000000" stroke="none" 
	d="
M54.108498,66.916672 
	C53.685802,68.112961 53.219830,69.609276 52.581329,69.686928 
	C50.194271,69.977219 47.750713,69.803009 45.271797,69.803009 
	C46.133183,63.955605 49.271133,62.931614 54.108498,66.916672 
z"/>
<path fill="#BB3F42" opacity="1.000000" stroke="none" 
	d="
M84.647369,65.950600 
	C88.166359,63.374397 90.865089,64.143463 92.745865,67.395714 
	C94.764587,70.886520 93.503784,77.162163 90.740982,78.601654 
	C87.473824,80.303925 83.383125,78.219101 83.143257,74.276726 
	C82.981964,71.625755 83.919312,68.907928 84.647369,65.950600 
z"/>
</svg>