<svg version="1.1" id="Layer_1" xmlns="http://www.w3.org/2000/svg" xmlns:xlink="http://www.w3.org/1999/xlink" x="0px" y="0px"
	 width="100%" viewBox="0 0 135 135" enable-background="new 0 0 135 135" xml:space="preserve">
<path fill="#FDFEFE" opacity="1.000000" stroke="none" 
	d="
M136.000000,52.000000 
	C136.000000,80.307549 136.000000,108.115089 136.000000,135.961319 
	C91.067513,135.961319 46.134983,135.961319 1.101226,135.961319 
	C1.101226,91.109383 1.101226,46.218460 1.101226,1.163769 
	C45.999512,1.163769 90.999710,1.163769 136.000000,1.163769 
	C136.000000,17.864611 136.000000,34.682304 136.000000,52.000000 
M33.204121,95.482452 
	C33.414581,95.757347 33.690617,95.923004 33.996891,95.995605 
	C33.996891,95.995605 34.024563,95.966415 34.110397,96.671165 
	C35.096901,97.099922 36.083405,97.528671 37.549160,98.076790 
	C37.549160,98.076790 38.005531,98.265610 38.256912,98.624123 
	C38.476166,98.838516 38.738758,98.956680 39.616188,99.057716 
	C40.086143,99.361801 40.556099,99.665886 41.154110,100.717384 
	C48.693394,104.757835 56.815990,104.258179 64.927094,103.689537 
	C65.329262,103.661331 65.668785,102.739639 66.686203,102.084435 
	C67.128784,102.070732 67.571373,102.057030 68.449371,102.531197 
	C70.302544,101.708939 72.155724,100.886681 74.343231,99.901360 
	C74.343231,99.901360 74.712982,99.860672 75.245964,99.807724 
	C75.496178,99.567223 75.746391,99.326721 76.340538,98.906052 
	C76.340538,98.906052 76.723305,98.840950 77.524391,98.933426 
	C79.493263,97.918060 81.462128,96.902695 83.289711,95.960190 
	C84.037201,96.812706 84.997879,97.908363 86.008812,99.000946 
	C86.008812,99.000946 85.993866,99.049026 86.174362,99.834320 
	C93.033722,100.050537 99.892593,100.293129 106.753593,100.421402 
	C107.193604,100.429634 107.650146,99.553726 108.653534,98.953133 
	C108.964462,98.640778 109.275391,98.328423 109.586319,98.016068 
	C109.130371,97.666245 108.674423,97.316422 108.097084,96.323524 
	C108.045227,95.890465 107.993370,95.457397 108.530502,94.517738 
	C108.055618,91.352882 107.580727,88.188034 106.972282,84.363808 
	C106.962967,83.916214 106.953644,83.468628 107.497055,82.569481 
	C107.045761,80.719223 106.594475,78.868965 105.981277,76.370743 
	C105.922623,75.707153 105.863968,75.043556 105.931961,73.429276 
	C105.117683,70.690948 108.119415,66.985611 103.831940,65.076935 
	C103.831940,65.076935 103.874016,65.106621 103.965942,64.271553 
	C103.521263,61.378799 103.076584,58.486042 102.631897,55.593288 
	C102.891579,55.517517 103.151253,55.441750 103.410927,55.365978 
	C104.792160,58.159664 106.173393,60.953354 107.554626,63.747040 
	C108.104202,63.653595 108.653770,63.560150 109.203346,63.466709 
	C109.477486,57.015457 109.751625,50.564209 110.931854,43.987999 
	C114.727585,43.670383 118.523308,43.352768 123.040047,42.770214 
	C123.232346,36.421448 123.439018,30.072964 123.562943,23.722864 
	C123.567757,23.476019 122.779121,23.213688 122.145332,22.530033 
	C122.145332,22.530033 121.969322,22.084118 121.434097,21.445761 
	C119.322868,21.296967 117.177696,20.837934 115.107544,21.064499 
	C110.905067,21.524433 109.796082,19.797333 109.852226,15.770368 
	C109.897964,12.490836 108.747978,9.194631 107.864334,5.136374 
	C100.430534,4.945288 92.996918,4.742564 85.561996,4.618433 
	C85.335350,4.614649 85.095039,5.429685 84.346825,6.537868 
	C84.049889,12.383910 83.550873,18.229603 83.540787,24.076139 
	C83.535698,27.024218 82.059280,27.168377 79.392921,26.846935 
	C78.924477,26.506626 78.456024,26.166319 77.732742,25.429277 
	C77.500923,25.190079 77.218544,25.064318 76.419121,24.971680 
	C76.419121,24.971680 75.983360,24.786829 75.718704,24.406233 
	C75.483284,24.179325 75.202072,24.063519 74.416222,23.974922 
	C74.416222,23.974922 73.986076,23.794512 73.702766,23.401918 
	C73.446976,23.171875 73.147316,23.066996 72.378136,23.044077 
	C72.378136,23.044077 71.983681,22.878420 71.625252,22.420553 
	C71.070709,22.293417 70.516167,22.166283 69.997604,21.998787 
	C69.997604,21.998787 69.977844,22.048805 69.581131,21.485046 
	C68.687637,21.341381 67.794151,21.197716 66.250793,21.050829 
	C65.824615,20.977732 65.398445,20.904633 64.478249,20.300484 
	C60.895508,18.441902 57.391285,18.177866 53.286674,20.950119 
	C52.532158,20.972561 51.777645,20.995005 50.281113,20.977484 
	C49.196705,21.345530 48.112301,21.713575 47.010166,22.005512 
	C47.010166,22.005512 47.066429,22.059746 46.475803,22.031763 
	C45.989010,22.309618 45.502216,22.587471 44.614613,23.033665 
	C44.614613,23.033665 44.182186,23.078350 43.707127,23.142176 
	C43.392139,23.258287 43.161217,23.467243 42.563911,23.962906 
	C42.563911,23.962906 42.080814,24.047161 41.310127,24.005421 
	C40.226650,24.696583 39.143177,25.387745 37.991272,26.023630 
	C37.991272,26.023630 38.065815,26.064827 37.291836,26.016270 
	C33.749050,25.924980 31.728207,27.678263 31.010855,31.084164 
	C31.010855,31.084164 31.110109,31.074427 30.611502,31.236982 
	C30.428709,31.524139 30.245916,31.811296 30.015411,32.015633 
	C30.015411,32.015633 30.098259,32.063297 29.604023,32.234711 
	C29.422121,32.522003 29.240219,32.809296 29.038725,33.012669 
	C29.038725,33.012669 29.112171,33.057755 28.594627,33.253624 
	C28.419588,33.566715 28.244547,33.879803 27.932699,34.610378 
	C27.932699,34.610378 27.650627,34.947201 26.942768,34.996140 
	C26.313940,36.036789 25.685110,37.077442 24.957609,38.713806 
	C24.911894,39.113041 24.866179,39.512276 24.946760,39.970562 
	C24.946760,39.970562 24.853762,39.866688 24.332996,40.170654 
	C24.139963,40.726452 23.946928,41.282246 23.852364,41.807106 
	C23.852364,41.807106 23.774136,41.739769 23.315155,41.795277 
	C23.315155,41.795277 22.887789,41.971642 22.455441,42.324631 
	C22.365952,42.678104 22.276463,43.031582 22.149147,43.713509 
	C22.149147,43.713509 21.978571,43.996735 21.258400,44.132885 
	C20.790857,45.705864 20.323317,47.278847 19.248386,49.061050 
	C19.184349,50.052696 19.120310,51.044338 19.015144,52.700008 
	C18.941629,53.137100 18.868113,53.574188 18.349573,54.471828 
	C18.230360,55.312378 18.111147,56.152927 17.971378,57.506168 
	C17.941397,57.674557 17.911417,57.842945 17.365570,58.573311 
	C17.520397,61.042545 17.675224,63.511784 17.944725,66.690605 
	C17.990116,67.407745 18.035509,68.124893 18.031412,69.446022 
	C18.283260,69.962288 18.535109,70.478546 18.915115,71.653755 
	C18.940556,72.100090 18.965996,72.546432 18.553579,73.306587 
	C18.945303,73.888672 19.337027,74.470757 19.877678,75.604561 
	C19.896204,75.794144 19.914728,75.983734 19.950581,76.933678 
	C20.600840,78.296417 21.251097,79.659164 22.092409,81.346046 
	C22.092409,81.346046 22.161289,81.715958 22.065306,82.499275 
	C23.085857,83.965393 24.106407,85.431503 25.087456,86.992500 
	C25.087456,86.992500 25.081282,86.889915 25.225397,87.385895 
	C25.498791,87.581139 25.772186,87.776390 25.998985,87.998512 
	C25.998985,87.998512 26.030436,87.954742 26.179268,88.415794 
	C26.350695,88.706795 26.595686,88.908386 27.404573,89.338303 
	C27.993189,90.117775 28.581806,90.897247 29.136065,92.409668 
	C30.054085,92.961975 30.972105,93.514282 31.965574,94.034584 
	C31.965574,94.034584 31.957218,94.116112 32.183071,94.523285 
	C32.383732,94.776947 32.641094,94.942444 32.998497,94.997253 
	C32.998497,94.997253 32.982082,95.043251 33.204121,95.482452 
M111.837646,115.938873 
	C112.109444,119.245422 112.381241,122.551964 112.653038,125.858513 
	C112.942154,126.053894 113.231262,126.249268 113.520378,126.444641 
	C115.016182,122.793785 116.511978,119.142929 118.007782,115.492065 
	C118.628548,115.700333 119.249313,115.908592 119.870079,116.116859 
	C119.434898,119.342049 118.999710,122.567245 118.496819,126.294189 
	C121.978508,124.233192 124.103264,115.978851 122.269630,113.951019 
	C121.950798,113.598427 121.449722,113.122070 121.072990,113.155495 
	C117.711906,113.453773 114.359840,113.853714 110.309334,113.973724 
	C109.214935,114.287827 107.275566,114.419975 107.162422,114.945381 
	C106.392723,118.519768 106.007721,122.176994 105.498505,125.807480 
	C105.908813,125.985146 106.319115,126.162819 106.729424,126.340492 
	C107.426537,125.205048 108.313629,124.141975 108.779663,122.918510 
	C109.645439,120.645615 110.265579,118.279144 111.837646,115.938873 
M42.984947,115.319099 
	C40.684059,110.365562 36.659283,115.346291 33.645493,113.087074 
	C32.480797,119.384758 31.425800,125.089279 30.370802,130.793808 
	C32.167381,130.309860 32.955345,129.270401 33.781818,128.262527 
	C34.400692,127.507797 34.943947,126.357971 35.735374,126.130554 
	C42.012920,124.326698 43.108898,122.921684 42.984947,115.319099 
M50.166706,126.022972 
	C50.630821,125.853050 51.128578,125.742966 51.553791,125.503860 
	C55.404396,123.338623 56.801510,119.830315 55.893749,115.771454 
	C54.971729,111.648827 51.635017,113.591377 49.078644,113.719879 
	C48.204346,113.763824 47.315655,113.521446 46.323895,113.396027 
	C45.235394,119.407707 44.218235,125.025345 43.201080,130.642990 
	C43.575325,130.824417 43.949566,131.005844 44.323811,131.187271 
	C44.993336,130.277359 45.567818,129.272461 46.357388,128.482544 
	C47.263893,127.575638 48.360966,126.859207 50.166706,126.022972 
M103.962044,114.178802 
	C102.578506,113.801537 101.177567,113.053635 99.814751,113.117630 
	C95.975273,113.297943 92.619751,117.194199 93.113396,121.374016 
	C93.309181,123.031685 95.035469,125.668304 96.308395,125.820297 
	C100.038559,126.265694 103.972015,125.929413 103.478241,120.236961 
	C103.326416,118.486588 103.948761,116.669067 103.962044,114.178802 
M19.393068,123.994240 
	C22.203016,124.823097 25.012962,125.651962 28.239532,126.603714 
	C28.954023,122.777649 29.517380,119.893867 30.026640,117.000565 
	C30.679104,113.293678 28.392103,112.758461 25.568626,113.077568 
	C21.334631,113.556084 19.085930,117.150276 19.393068,123.994240 
M86.175697,113.388565 
	C84.544067,115.898102 82.308197,118.240623 81.547966,120.991020 
	C81.193405,122.273796 83.424713,124.709518 85.020714,125.907616 
	C85.813965,126.503113 87.818848,125.484604 89.275612,125.196243 
	C89.169289,124.797806 89.062965,124.399361 88.956650,124.000923 
	C87.360077,123.430374 85.763504,122.859833 84.921249,122.558846 
	C87.407387,120.192741 89.666779,118.042435 91.926178,115.892128 
	C90.251823,114.965164 88.577469,114.038200 86.175697,113.388565 
M77.301445,123.240135 
	C76.424843,119.445724 76.967194,116.218422 81.062576,114.654655 
	C79.813423,112.792213 78.812912,111.300484 77.611595,109.509354 
	C76.081230,111.214684 73.835632,112.574814 73.595360,114.226631 
	C73.120308,117.492523 73.382385,121.011940 74.177162,124.218987 
	C74.390434,125.079559 77.623650,125.191719 79.470528,125.647453 
	C79.037071,124.900711 78.603607,124.153969 77.301445,123.240135 
M61.448421,121.017868 
	C60.160141,122.223923 58.871857,123.429970 57.057648,125.128380 
	C58.718925,126.853752 61.127266,126.629112 63.211670,125.015808 
	C67.677200,121.559547 64.003464,118.994392 61.388988,116.296448 
	C63.304539,115.712601 64.723076,115.280235 66.849892,114.631996 
	C63.446018,112.068977 61.107052,112.873856 59.179131,115.207794 
	C57.164101,117.647186 58.149014,119.454033 61.448421,121.017868 
z"/>
<path fill="#58BAEC" opacity="1.000000" stroke="none" 
	d="
M38.005531,98.265610 
	C38.005531,98.265610 37.549160,98.076790 37.163811,97.734787 
	C35.860493,96.917320 34.942528,96.441872 34.024563,95.966415 
	C34.024563,95.966415 33.996891,95.995605 33.919163,95.754379 
	C33.554981,95.356529 33.268532,95.199890 32.982082,95.043251 
	C32.982082,95.043251 32.998497,94.997253 32.891636,94.780579 
	C32.587067,94.270256 32.311214,94.120987 31.957218,94.116112 
	C31.957218,94.116112 31.965574,94.034584 31.817238,93.759842 
	C30.836075,92.882309 30.003248,92.279518 29.170422,91.676720 
	C28.581806,90.897247 27.993189,90.117775 27.104271,88.937164 
	C26.637911,88.220154 26.380068,88.026390 26.030436,87.954742 
	C26.030436,87.954742 25.998985,87.998512 25.947578,87.738586 
	C25.624542,87.282410 25.352913,87.086159 25.081284,86.889915 
	C25.081282,86.889915 25.087456,86.992500 25.058712,86.611923 
	C24.073742,84.726219 23.117516,83.221085 22.161289,81.715958 
	C22.161289,81.715958 22.092409,81.346046 22.017868,80.888550 
	C21.907532,80.037903 21.871735,79.644753 21.872017,78.923309 
	C21.602165,78.055504 21.296232,77.515999 20.927292,76.831985 
	C20.864286,76.687469 20.832994,76.373726 20.872406,76.030731 
	C20.610327,75.124245 20.308838,74.560768 19.948345,73.813339 
	C19.889341,73.629387 19.868473,73.243591 19.912148,72.857079 
	C19.662271,71.297234 19.368723,70.123901 19.062698,68.496933 
	C19.336510,62.664307 19.622795,57.285316 19.935259,51.922935 
	C19.961439,51.939548 19.910431,51.969505 20.206888,51.760967 
	C20.623825,50.605988 20.744307,49.659550 20.884731,48.531250 
	C20.904675,48.349392 21.026522,48.004372 21.276901,47.809231 
	C21.641586,47.004025 21.755888,46.393955 21.895746,45.485943 
	C21.940392,44.790909 21.959480,44.393822 21.978569,43.996735 
	C21.978571,43.996735 22.149147,43.713509 22.382065,43.465214 
	C22.614983,43.216919 23.029825,43.019352 23.252766,42.874012 
	C23.575184,42.399036 23.674660,42.069405 23.774136,41.739769 
	C23.774136,41.739769 23.852364,41.807106 24.110802,41.721687 
	C24.530748,41.046410 24.692255,40.456551 24.853760,39.866688 
	C24.853762,39.866688 24.946760,39.970562 25.172081,39.818497 
	C25.591125,39.096943 25.784849,38.527454 25.992207,37.975891 
	C26.005838,37.993820 25.961102,37.988850 26.196056,37.883446 
	C26.603434,37.489712 26.775856,37.201378 26.966711,36.951012 
	C26.985144,36.988979 26.910345,36.949848 27.153397,36.856125 
	C27.566719,36.470169 27.736988,36.177933 27.898361,35.928642 
	C27.889467,35.971592 27.829342,35.907719 28.111683,35.800217 
	C28.605349,35.150879 28.816673,34.609039 29.055683,33.815392 
	C29.092974,33.394974 29.102573,33.226364 29.112171,33.057755 
	C29.112171,33.057755 29.038725,33.012669 29.294270,32.966675 
	C29.732630,32.634884 29.915443,32.349091 30.098257,32.063293 
	C30.098259,32.063297 30.015411,32.015633 30.285912,31.971470 
	C30.740976,31.643013 30.925543,31.358721 31.110111,31.074429 
	C31.110109,31.074427 31.010855,31.084164 31.384924,31.027611 
	C33.861267,29.335648 35.963539,27.700237 38.065815,26.064827 
	C38.065815,26.064827 37.991272,26.023630 38.356117,26.020494 
	C39.840912,25.360626 40.960861,24.703894 42.080814,24.047161 
	C42.080814,24.047161 42.563911,23.962906 43.032738,23.857536 
	C43.823944,23.624090 44.050819,23.399485 44.182186,23.078350 
	C44.182186,23.078350 44.614613,23.033665 45.110893,22.975237 
	C46.093597,22.631121 46.580013,22.345434 47.066429,22.059746 
	C47.066429,22.059746 47.010166,22.005512 47.379463,22.049076 
	C48.840214,21.734241 49.931671,21.375845 51.023129,21.017448 
	C51.777645,20.995005 52.532158,20.972561 54.109848,20.940807 
	C58.279438,20.898176 61.625851,20.864855 64.972267,20.831535 
	C65.398445,20.904633 65.824615,20.977732 66.800598,21.305637 
	C68.226219,21.723230 69.102036,21.886019 69.977844,22.048805 
	C69.977844,22.048805 69.997604,21.998787 70.149780,22.259884 
	C70.862526,22.640129 71.423103,22.759275 71.983681,22.878420 
	C71.983681,22.878420 72.378136,23.044077 72.726151,23.275248 
	C73.324387,23.772732 73.628357,23.868763 73.986076,23.794512 
	C73.986076,23.794512 74.416222,23.974922 74.762062,24.228111 
	C75.343246,24.745029 75.635063,24.846872 75.983360,24.786829 
	C75.983360,24.786829 76.419121,24.971680 76.767113,25.227758 
	C77.340034,25.765972 77.630859,25.880030 77.987579,25.826010 
	C78.456024,26.166319 78.924477,26.506626 79.840004,27.224485 
	C83.703079,30.950983 88.049538,33.765091 90.344856,37.758221 
	C95.403564,46.558784 99.427704,55.954041 103.874016,65.106621 
	C103.874016,65.106621 103.831940,65.076935 103.834183,65.503906 
	C104.492722,68.747238 105.149017,71.563599 105.805313,74.379967 
	C105.863968,75.043556 105.922623,75.707153 105.996857,77.087570 
	C106.323074,79.543274 106.633705,81.282158 106.944328,83.021034 
	C106.953644,83.468628 106.962967,83.916214 106.979248,85.134384 
	C107.304649,88.944756 107.623077,91.984543 107.941513,95.024338 
	C107.993370,95.457397 108.045227,95.890465 108.074631,96.897758 
	C108.033775,97.648270 108.015388,97.824554 107.626251,98.204926 
	C100.168297,98.622353 93.081078,98.835686 85.993866,99.049026 
	C85.993866,99.049026 86.008812,99.000946 85.990913,98.546417 
	C85.659645,93.665565 85.582458,89.207077 84.984787,84.819481 
	C83.652779,75.040977 81.906746,65.348053 75.990967,57.020142 
	C75.997536,57.004627 75.968689,57.008133 75.908745,56.762054 
	C75.580917,56.322533 75.313034,56.129093 75.036263,55.971779 
	C75.027374,56.007908 75.067825,55.944405 75.011108,55.611938 
	C72.950706,53.270947 70.947021,51.262424 68.734352,49.120392 
	C68.525375,48.986877 68.058952,48.818241 67.873215,48.524811 
	C60.208759,43.838810 54.547523,44.041889 48.637421,48.987049 
	C48.154247,49.199799 47.952843,49.407055 47.514511,49.829437 
	C46.114120,51.965252 45.026993,53.960117 43.959679,55.979156 
	C43.979496,56.003323 43.951954,55.952965 43.663284,56.195770 
	C41.854156,60.471657 41.221851,64.474022 43.820763,68.647461 
	C43.972851,69.287819 44.091255,69.646523 44.223946,70.242500 
	C44.392864,70.785522 44.638042,70.972786 44.984310,71.018990 
	C44.994854,70.996414 44.957657,71.030548 45.005466,71.363571 
	C46.317921,72.853828 47.582561,74.011070 48.894760,75.163010 
	C48.942310,75.157707 48.857204,75.113945 48.952126,75.355949 
	C49.347511,75.754768 49.647980,75.911575 49.973076,76.033890 
	C49.997704,75.999390 49.944214,76.067085 50.158218,76.362717 
	C56.354179,79.560066 62.248768,80.243332 67.970505,75.984535 
	C67.992989,76.002853 67.979759,75.946396 68.229523,75.893845 
	C68.681999,75.580223 68.884705,75.319160 69.042213,75.053764 
	C68.997017,75.049438 69.074120,75.097427 69.394806,75.051537 
	C70.745407,73.975098 71.775314,72.944550 73.047577,71.769547 
	C73.552376,71.137703 73.814827,70.650322 74.310585,70.049088 
	C74.702057,69.636665 74.860222,69.338089 75.306732,69.054749 
	C76.079613,69.379593 76.564133,69.689201 77.077034,70.251930 
	C77.339882,70.728645 77.574356,70.952232 77.793350,71.210579 
	C77.777863,71.245331 77.769173,71.320923 77.799103,71.707764 
	C78.785271,75.916595 80.261459,79.696907 80.571968,83.570663 
	C81.003212,88.950691 83.577278,95.185631 76.723305,98.840950 
	C76.723305,98.840950 76.340538,98.906052 75.905548,99.027161 
	C75.218033,99.385735 74.965508,99.623199 74.712982,99.860672 
	C74.712982,99.860672 74.343231,99.901360 73.809662,99.975983 
	C71.522057,100.714851 69.768005,101.379089 68.013954,102.043335 
	C67.571373,102.057030 67.128784,102.070732 65.941170,102.088226 
	C57.139442,101.384659 49.082748,100.677315 41.026054,99.969971 
	C40.556099,99.665886 40.086143,99.361801 39.224312,98.811119 
	C38.623768,98.279556 38.348133,98.179916 38.005531,98.265610 
z"/>
<path fill="#E2FBFF" opacity="1.000000" stroke="none" 
	d="
M103.919983,64.689087 
	C99.427704,55.954041 95.403564,46.558784 90.344856,37.758221 
	C88.049538,33.765091 83.703079,30.950983 80.115265,27.314936 
	C82.059280,27.168377 83.535698,27.024218 83.540787,24.076139 
	C83.550873,18.229603 84.049889,12.383910 84.644028,6.239934 
	C84.941223,5.942000 85.021576,6.020797 85.005783,6.487103 
	C84.984138,8.780866 84.883049,10.613963 84.990860,12.434691 
	C85.278465,17.292057 85.655891,22.144104 85.998657,26.999247 
	C85.999695,27.000229 86.001869,27.002241 86.148087,27.263405 
	C86.844070,27.726730 87.393852,27.928894 87.958267,28.091446 
	C87.972900,28.051836 87.889793,28.066874 87.978546,28.315874 
	C88.367348,28.736055 88.667397,28.907236 88.978745,29.044207 
	C88.990044,29.009996 88.922417,29.034863 89.021179,29.275238 
	C89.405678,29.698008 89.691399,29.880400 89.986893,30.032875 
	C89.996666,30.002960 89.937393,30.024134 90.032486,30.264750 
	C90.414574,30.683969 90.701569,30.862574 90.995316,31.019398 
	C91.002083,30.997620 90.958824,31.012068 91.051880,31.251415 
	C91.422943,31.678743 91.700951,31.866722 91.989075,32.027733 
	C91.999184,32.000767 91.945412,32.021416 92.038101,32.262856 
	C92.414024,32.687366 92.697250,32.870434 92.990036,33.026901 
	C92.999588,33.000301 92.946548,33.019863 93.035507,33.263592 
	C93.403244,33.698818 93.682037,33.890320 93.973892,34.046371 
	C93.986954,34.010925 93.916939,34.039326 94.002701,34.288536 
	C94.374199,34.724209 94.659935,34.910671 94.953445,35.057114 
	C94.961212,35.017097 94.886177,35.048973 94.925095,35.339619 
	C95.322449,36.063850 95.680901,36.497433 96.020584,36.959198 
	C96.001823,36.987373 96.068977,36.978760 96.132431,37.219658 
	C96.369652,37.771519 96.631027,37.962803 96.990372,38.016991 
	C97.000748,37.999573 96.965172,38.018967 97.038712,38.269928 
	C97.388847,38.712967 97.665443,38.905045 97.926666,39.060287 
	C97.911301,39.023449 97.871162,39.092453 97.909088,39.416824 
	C98.583603,40.612957 99.220192,41.484718 99.864410,42.519600 
	C99.872047,42.682724 100.020882,42.973446 100.072800,43.253731 
	C100.382782,43.806408 100.640846,44.078804 100.908569,44.517818 
	C100.918228,44.684437 101.068855,44.982311 101.115356,45.234932 
	C101.419518,45.692734 101.677177,45.897919 101.918945,46.065662 
	C101.903038,46.028221 101.860222,46.097404 101.890594,46.442383 
	C102.611252,48.198517 103.301537,49.609669 103.997070,51.010483 
	C104.002319,51.000145 103.980347,51.006157 104.002800,51.360222 
	C104.679565,53.090405 105.333878,54.466522 105.988197,55.842644 
	C106.412994,55.799038 106.837791,55.755432 107.262589,55.711826 
	C107.471161,54.143875 107.679733,52.575928 107.938995,50.578339 
	C108.022102,48.141964 108.054512,46.135220 108.409348,44.081394 
	C109.163101,44.060524 109.594429,44.086742 110.025764,44.112961 
	C109.751625,50.564209 109.477486,57.015457 109.203346,63.466709 
	C108.653770,63.560150 108.104202,63.653595 107.554626,63.747040 
	C106.173393,60.953354 104.792160,58.159664 103.410927,55.365978 
	C103.151253,55.441750 102.891579,55.517517 102.631897,55.593288 
	C103.076584,58.486042 103.521263,61.378799 103.919983,64.689087 
z"/>
<path fill="#DFF8FD" opacity="1.000000" stroke="none" 
	d="
M75.984390,57.035656 
	C81.906746,65.348053 83.652779,75.040977 84.984787,84.819481 
	C85.582458,89.207077 85.659645,93.665565 85.965790,98.547958 
	C84.997879,97.908363 84.037201,96.812706 83.289711,95.960190 
	C81.462128,96.902695 79.493263,97.918060 77.123848,98.887192 
	C83.577278,95.185631 81.003212,88.950691 80.571968,83.570663 
	C80.261459,79.696907 78.785271,75.916595 78.159241,71.570374 
	C81.588478,68.370354 78.372467,66.185875 77.874184,63.819077 
	C77.391624,61.526909 76.625801,59.294380 75.984390,57.035656 
z"/>
<path fill="#494949" opacity="1.000000" stroke="none" 
	d="
M43.053783,115.684753 
	C43.108898,122.921684 42.012920,124.326698 35.735374,126.130554 
	C34.943947,126.357971 34.400692,127.507797 33.781818,128.262527 
	C32.955345,129.270401 32.167381,130.309860 30.370802,130.793808 
	C31.425800,125.089279 32.480797,119.384758 33.645493,113.087074 
	C36.659283,115.346291 40.684059,110.365562 43.053783,115.684753 
M36.096165,117.653000 
	C35.684113,119.472992 35.272060,121.292984 34.860008,123.112984 
	C35.464783,123.439117 36.069561,123.765244 36.674335,124.091377 
	C37.834332,122.371780 39.592285,120.786072 40.014355,118.901237 
	C40.649338,116.065582 39.531586,114.503136 36.096165,117.653000 
z"/>
<path fill="#48494A" opacity="1.000000" stroke="none" 
	d="
M49.770981,126.041504 
	C48.360966,126.859207 47.263893,127.575638 46.357388,128.482544 
	C45.567818,129.272461 44.993336,130.277359 44.323811,131.187271 
	C43.949566,131.005844 43.575325,130.824417 43.201080,130.642990 
	C44.218235,125.025345 45.235394,119.407707 46.323895,113.396027 
	C47.315655,113.521446 48.204346,113.763824 49.078644,113.719879 
	C51.635017,113.591377 54.971729,111.648827 55.893749,115.771454 
	C56.801510,119.830315 55.404396,123.338623 51.553791,125.503860 
	C51.128578,125.742966 50.630821,125.853050 49.770981,126.041504 
M51.833622,122.066071 
	C52.263405,120.072990 52.693184,118.079918 53.285416,115.333504 
	C47.809124,116.772369 47.797401,119.875107 47.953197,123.664047 
	C49.297981,123.255547 50.303684,122.950050 51.833622,122.066071 
z"/>
<path fill="#464747" opacity="1.000000" stroke="none" 
	d="
M104.089325,114.530548 
	C103.948761,116.669067 103.326416,118.486588 103.478241,120.236961 
	C103.972015,125.929413 100.038559,126.265694 96.308395,125.820297 
	C95.035469,125.668304 93.309181,123.031685 93.113396,121.374016 
	C92.619751,117.194199 95.975273,113.297943 99.814751,113.117630 
	C101.177567,113.053635 102.578506,113.801537 104.089325,114.530548 
M98.124695,123.488609 
	C99.349487,121.228477 100.574272,118.968346 102.150757,116.059219 
	C95.950157,116.700951 94.885933,119.080742 98.124695,123.488609 
z"/>
<path fill="#494949" opacity="1.000000" stroke="none" 
	d="
M19.242025,123.600723 
	C19.085930,117.150276 21.334631,113.556084 25.568626,113.077568 
	C28.392103,112.758461 30.679104,113.293678 30.026640,117.000565 
	C29.517380,119.893867 28.954023,122.777649 28.239532,126.603714 
	C25.012962,125.651962 22.203016,124.823097 19.242025,123.600723 
M27.065552,117.417694 
	C25.889023,117.215370 23.737337,116.694710 23.683712,116.858971 
	C22.991253,118.980133 22.597565,121.198830 22.128365,123.392876 
	C22.866840,123.610443 23.605314,123.828018 24.343790,124.045593 
	C25.233284,122.106209 26.122780,120.166824 27.065552,117.417694 
z"/>
<path fill="#4A4A4B" opacity="1.000000" stroke="none" 
	d="
M111.005119,114.223717 
	C114.359840,113.853714 117.711906,113.453773 121.072990,113.155495 
	C121.449722,113.122070 121.950798,113.598427 122.269630,113.951019 
	C124.103264,115.978851 121.978508,124.233192 118.496819,126.294189 
	C118.999710,122.567245 119.434898,119.342049 119.870079,116.116859 
	C119.249313,115.908592 118.628548,115.700333 118.007782,115.492065 
	C116.511978,119.142929 115.016182,122.793785 113.520378,126.444641 
	C113.231262,126.249268 112.942154,126.053894 112.653038,125.858513 
	C112.381241,122.551964 112.109444,119.245422 111.418091,115.657288 
	C111.000732,114.991714 111.002922,114.607712 111.005119,114.223717 
z"/>
<path fill="#4C4D4D" opacity="1.000000" stroke="none" 
	d="
M86.539406,113.249901 
	C88.577469,114.038200 90.251823,114.965164 91.926178,115.892120 
	C89.666779,118.042435 87.407387,120.192741 84.921249,122.558846 
	C85.763504,122.859833 87.360077,123.430374 88.956650,124.000923 
	C89.062965,124.399361 89.169289,124.797806 89.275612,125.196243 
	C87.818848,125.484604 85.813965,126.503113 85.020714,125.907616 
	C83.424713,124.709518 81.193405,122.273796 81.547966,120.991020 
	C82.308197,118.240623 84.544067,115.898102 86.539406,113.249901 
z"/>
<path fill="#67B7DD" opacity="1.000000" stroke="none" 
	d="
M110.478806,44.050480 
	C109.594429,44.086742 109.163101,44.060524 108.458611,43.674538 
	C108.992294,42.882805 109.769165,42.148216 110.610535,42.064888 
	C121.013931,41.034531 121.016357,41.059013 120.993401,30.607576 
	C120.978920,24.013519 120.972198,24.175503 114.308289,23.898985 
	C112.211594,23.811983 110.161568,22.600143 108.547394,21.946064 
	C113.326172,22.020700 117.647743,22.052408 121.969322,22.084118 
	C121.969322,22.084118 122.145332,22.530033 122.155228,23.207771 
	C122.216423,30.268724 122.267731,36.651939 122.319038,43.035152 
	C118.523308,43.352768 114.727585,43.670383 110.478806,44.050480 
z"/>
<path fill="#4C4C4C" opacity="1.000000" stroke="none" 
	d="
M77.735794,123.323685 
	C78.603607,124.153969 79.037071,124.900711 79.470528,125.647446 
	C77.623650,125.191719 74.390434,125.079559 74.177162,124.218987 
	C73.382385,121.011940 73.120308,117.492523 73.595360,114.226631 
	C73.835632,112.574814 76.081230,111.214684 77.611595,109.509354 
	C78.812912,111.300484 79.813423,112.792213 81.062576,114.654655 
	C76.967194,116.218422 76.424843,119.445724 77.735794,123.323685 
z"/>
<path fill="#4B4B4C" opacity="1.000000" stroke="none" 
	d="
M61.137791,120.812233 
	C58.149014,119.454033 57.164101,117.647186 59.179131,115.207794 
	C61.107052,112.873856 63.446018,112.068977 66.849892,114.631996 
	C64.723076,115.280235 63.304539,115.712601 61.388988,116.296448 
	C64.003464,118.994392 67.677200,121.559547 63.211670,125.015808 
	C61.127266,126.629112 58.718925,126.853752 57.057648,125.128380 
	C58.871857,123.429970 60.160141,122.223923 61.137791,120.812233 
z"/>
<path fill="#E2FBFF" opacity="1.000000" stroke="none" 
	d="
M84.901154,5.902485 
	C85.095039,5.429685 85.335350,4.614649 85.561996,4.618433 
	C92.996918,4.742564 100.430534,4.945288 107.960083,5.546774 
	C108.055832,5.957173 107.987862,6.011694 107.522400,5.963072 
	C99.711815,5.949899 92.366692,5.985348 85.021576,6.020797 
	C85.021576,6.020797 84.941223,5.942000 84.901154,5.902485 
z"/>
<path fill="#4E4E4F" opacity="1.000000" stroke="none" 
	d="
M110.657227,114.098724 
	C111.002922,114.607712 111.000732,114.991714 110.993263,115.663673 
	C110.265579,118.279144 109.645439,120.645615 108.779663,122.918510 
	C108.313629,124.141975 107.426537,125.205048 106.729424,126.340492 
	C106.319115,126.162819 105.908813,125.985146 105.498505,125.807480 
	C106.007721,122.176994 106.392723,118.519768 107.162422,114.945381 
	C107.275566,114.419975 109.214935,114.287827 110.657227,114.098724 
z"/>
<path fill="#DFF8FD" opacity="1.000000" stroke="none" 
	d="
M86.084114,99.441673 
	C93.081078,98.835686 100.168297,98.622353 107.643593,98.477737 
	C108.054123,98.727356 108.076569,98.908234 108.098999,99.089111 
	C107.650146,99.553726 107.193604,100.429634 106.753593,100.421402 
	C99.892593,100.293129 93.033722,100.050537 86.084114,99.441673 
z"/>
<path fill="#E2FBFF" opacity="1.000000" stroke="none" 
	d="
M121.701706,21.764938 
	C117.647743,22.052408 113.326172,22.020700 108.532990,21.966187 
	C108.061378,21.943382 108.097420,21.936592 108.089973,21.475096 
	C108.050972,16.012964 108.019417,11.012329 107.987854,6.011694 
	C107.987862,6.011694 108.055832,5.957173 108.092026,5.931496 
	C108.747978,9.194631 109.897964,12.490836 109.852226,15.770368 
	C109.796082,19.797333 110.905067,21.524433 115.107544,21.064499 
	C117.177696,20.837934 119.322868,21.296967 121.701706,21.764938 
z"/>
<path fill="#DFF8FD" opacity="1.000000" stroke="none" 
	d="
M41.090080,100.343674 
	C49.082748,100.677315 57.139442,101.384659 65.616806,102.163002 
	C65.668785,102.739639 65.329262,103.661331 64.927094,103.689537 
	C56.815990,104.258179 48.693394,104.757835 41.090080,100.343674 
z"/>
<path fill="#E2FBFF" opacity="1.000000" stroke="none" 
	d="
M122.679543,42.902683 
	C122.267731,36.651939 122.216423,30.268724 122.262665,23.422043 
	C122.779121,23.213688 123.567757,23.476019 123.562943,23.722864 
	C123.439018,30.072964 123.232346,36.421448 122.679543,42.902683 
z"/>
<path fill="#74B9D9" opacity="1.000000" stroke="none" 
	d="
M19.909079,51.906326 
	C19.622795,57.285316 19.336510,62.664307 19.020134,68.528580 
	C18.990042,69.013870 18.909405,69.080963 18.704721,69.012756 
	C18.500038,68.944557 18.080900,68.842033 18.080900,68.842033 
	C18.035509,68.124893 17.990116,67.407745 17.947248,65.897301 
	C17.926992,62.739777 17.904213,60.375553 17.881435,58.011333 
	C17.911417,57.842945 17.941397,57.674557 18.224911,57.031647 
	C18.583830,55.708508 18.689215,54.859894 18.794598,54.011280 
	C18.868113,53.574188 18.941629,53.137100 19.249016,52.336590 
	C19.482889,51.973171 19.909079,51.906326 19.909079,51.906326 
z"/>
<path fill="#E2FBFF" opacity="1.000000" stroke="none" 
	d="
M64.725258,20.566010 
	C61.625851,20.864855 58.279438,20.898176 54.481472,20.873241 
	C57.391285,18.177866 60.895508,18.441902 64.725258,20.566010 
z"/>
<path fill="#E2FBFF" opacity="1.000000" stroke="none" 
	d="
M37.678825,26.040546 
	C35.963539,27.700237 33.861267,29.335648 31.430897,31.046928 
	C31.728207,27.678263 33.749050,25.924980 37.678825,26.040546 
z"/>
<path fill="#E2FBFF" opacity="1.000000" stroke="none" 
	d="
M108.236008,94.771042 
	C107.623077,91.984543 107.304649,88.944756 107.046021,85.464066 
	C107.580727,88.188034 108.055618,91.352882 108.236008,94.771042 
z"/>
<path fill="#E2FBFF" opacity="1.000000" stroke="none" 
	d="
M105.868637,73.904617 
	C105.149017,71.563599 104.492722,68.747238 103.832428,65.529594 
	C108.119415,66.985611 105.117683,70.690948 105.868637,73.904617 
z"/>
<path fill="#E2FBFF" opacity="1.000000" stroke="none" 
	d="
M107.220688,82.795258 
	C106.633705,81.282158 106.323074,79.543274 106.077820,77.411560 
	C106.594475,78.868965 107.045761,80.719223 107.220688,82.795258 
z"/>
<path fill="#DFF8FD" opacity="1.000000" stroke="none" 
	d="
M68.231659,102.287262 
	C69.768005,101.379089 71.522057,100.714851 73.642502,100.057526 
	C72.155724,100.886681 70.302544,101.708939 68.231659,102.287262 
z"/>
<path fill="#DFF8FD" opacity="1.000000" stroke="none" 
	d="
M22.113297,82.107620 
	C23.117516,83.221085 24.073742,84.726219 25.078465,86.564484 
	C24.106407,85.431503 23.085857,83.965393 22.113297,82.107620 
z"/>
<path fill="#DFF8FD" opacity="1.000000" stroke="none" 
	d="
M17.623503,58.292320 
	C17.904213,60.375553 17.926992,62.739777 17.889912,65.542511 
	C17.675224,63.511784 17.520397,61.042545 17.623503,58.292320 
z"/>
<path fill="#DFF8FD" opacity="1.000000" stroke="none" 
	d="
M21.618484,44.064812 
	C21.959480,44.393822 21.940392,44.790909 21.662743,45.695927 
	C21.278294,46.804028 21.152407,47.404202 21.026520,48.004372 
	C21.026522,48.004372 20.904675,48.349392 20.669491,48.603127 
	C20.434305,48.856861 20.005112,49.004498 19.967567,48.966534 
	C19.930025,48.928570 19.855774,48.851826 19.855774,48.851826 
	C20.323317,47.278847 20.790857,45.705864 21.618484,44.064812 
z"/>
<path fill="#DFF8FD" opacity="1.000000" stroke="none" 
	d="
M20.832994,76.373726 
	C20.832994,76.373726 20.864286,76.687469 20.924902,77.151901 
	C21.268991,78.161423 21.552464,78.706520 21.835938,79.251610 
	C21.871735,79.644753 21.907532,80.037903 21.922340,80.726471 
	C21.251097,79.659164 20.600840,78.296417 20.169733,76.591057 
	C20.388885,76.248436 20.832994,76.373726 20.832994,76.373726 
z"/>
<path fill="#E2FBFF" opacity="1.000000" stroke="none" 
	d="
M41.695473,24.026291 
	C40.960861,24.703894 39.840912,25.360626 38.390327,26.048134 
	C39.143177,25.387745 40.226650,24.696583 41.695473,24.026291 
z"/>
<path fill="#E2FBFF" opacity="1.000000" stroke="none" 
	d="
M25.056280,38.118092 
	C25.685110,37.077442 26.313940,36.036789 27.350317,35.210365 
	C27.757866,35.424595 27.829342,35.907719 27.829342,35.907719 
	C27.829342,35.907719 27.889467,35.971592 27.649494,36.011612 
	C27.243128,36.351040 27.076736,36.650444 26.910347,36.949848 
	C26.910345,36.949848 26.985144,36.988979 26.724842,37.047218 
	C26.296726,37.399921 26.128914,37.694386 25.961102,37.988850 
	C25.961102,37.988850 26.005838,37.993820 25.761032,38.012394 
	C25.516226,38.030968 25.056280,38.118092 25.056280,38.118092 
z"/>
<path fill="#DFF8FD" opacity="1.000000" stroke="none" 
	d="
M19.935259,51.922935 
	C19.909079,51.906326 19.482889,51.973171 19.269581,52.004578 
	C19.120310,51.044338 19.184349,50.052696 19.552080,48.956436 
	C19.855774,48.851826 19.930025,48.928570 19.954620,49.337124 
	C19.956287,50.486954 19.933359,51.228230 19.910431,51.969505 
	C19.910431,51.969505 19.961439,51.939548 19.935259,51.922935 
z"/>
<path fill="#DFF8FD" opacity="1.000000" stroke="none" 
	d="
M34.067482,96.318787 
	C34.942528,96.441872 35.860493,96.917320 36.924183,97.675102 
	C36.083405,97.528671 35.096901,97.099922 34.067482,96.318787 
z"/>
<path fill="#DFF8FD" opacity="1.000000" stroke="none" 
	d="
M29.153244,92.043198 
	C30.003248,92.279518 30.836075,92.882309 31.779514,93.775848 
	C30.972105,93.514282 30.054085,92.961975 29.153244,92.043198 
z"/>
<path fill="#E2FBFF" opacity="1.000000" stroke="none" 
	d="
M108.376266,99.021126 
	C108.076569,98.908234 108.054123,98.727356 108.014336,98.273651 
	C108.015388,97.824554 108.033775,97.648270 108.135323,97.219299 
	C108.674423,97.316422 109.130371,97.666245 109.586319,98.016068 
	C109.275391,98.328423 108.964462,98.640778 108.376266,99.021126 
z"/>
<path fill="#DFF8FD" opacity="1.000000" stroke="none" 
	d="
M19.868473,73.243591 
	C19.868473,73.243591 19.889341,73.629387 19.888145,74.079742 
	C19.834215,74.704338 19.781481,74.878593 19.728748,75.052841 
	C19.337027,74.470757 18.945303,73.888672 18.992735,73.209122 
	C19.431890,73.111656 19.868473,73.243591 19.868473,73.243591 
z"/>
<path fill="#E2FBFF" opacity="1.000000" stroke="none" 
	d="
M50.652122,20.997467 
	C49.931671,21.375845 48.840214,21.734241 47.388325,22.087128 
	C48.112301,21.713575 49.196705,21.345530 50.652122,20.997467 
z"/>
<path fill="#74B9D9" opacity="1.000000" stroke="none" 
	d="
M19.912148,72.857079 
	C19.868473,73.243591 19.431890,73.111656 19.211662,73.052216 
	C18.965996,72.546432 18.940556,72.100090 18.905254,71.008179 
	C18.900064,69.935387 18.904736,69.508171 18.909405,69.080963 
	C18.909405,69.080963 18.990042,69.013870 19.032608,68.982224 
	C19.368723,70.123901 19.662271,71.297234 19.912148,72.857079 
z"/>
<path fill="#DFF8FD" opacity="1.000000" stroke="none" 
	d="
M18.572086,54.241554 
	C18.689215,54.859894 18.583830,55.708508 18.235189,56.775299 
	C18.111147,56.152927 18.230360,55.312378 18.572086,54.241554 
z"/>
<path fill="#E2FBFF" opacity="1.000000" stroke="none" 
	d="
M69.779488,21.766926 
	C69.102036,21.886019 68.226219,21.723230 67.125534,21.307247 
	C67.794151,21.197716 68.687637,21.341381 69.779488,21.766926 
z"/>
<path fill="#E2FBFF" opacity="1.000000" stroke="none" 
	d="
M71.804466,22.649487 
	C71.423103,22.759275 70.862526,22.640129 70.131790,22.280066 
	C70.516167,22.166283 71.070709,22.293417 71.804466,22.649487 
z"/>
<path fill="#E2FBFF" opacity="1.000000" stroke="none" 
	d="
M46.771118,22.045755 
	C46.580013,22.345434 46.093597,22.631121 45.311302,22.891068 
	C45.502216,22.587471 45.989010,22.309618 46.771118,22.045755 
z"/>
<path fill="#74B9D9" opacity="1.000000" stroke="none" 
	d="
M19.803213,75.328705 
	C19.781481,74.878593 19.834215,74.704338 19.947147,74.263687 
	C20.308838,74.560768 20.610327,75.124245 20.872406,76.030731 
	C20.832994,76.373726 20.388885,76.248436 20.161068,76.210876 
	C19.914728,75.983734 19.896204,75.794144 19.803213,75.328705 
z"/>
<path fill="#DFF8FD" opacity="1.000000" stroke="none" 
	d="
M18.704721,69.012756 
	C18.904736,69.508171 18.900064,69.935387 18.841175,70.678703 
	C18.535109,70.478546 18.283260,69.962288 18.056156,69.144028 
	C18.080900,68.842033 18.500038,68.944557 18.704721,69.012756 
z"/>
<path fill="#74B9D9" opacity="1.000000" stroke="none" 
	d="
M25.006945,38.415947 
	C25.056280,38.118092 25.516226,38.030968 25.747398,37.994469 
	C25.784849,38.527454 25.591125,39.096943 25.108932,39.788971 
	C24.866179,39.512276 24.911894,39.113041 25.006945,38.415947 
z"/>
<path fill="#74B9D9" opacity="1.000000" stroke="none" 
	d="
M24.593378,40.018669 
	C24.692255,40.456551 24.530748,41.046410 24.061567,41.737160 
	C23.946928,41.282246 24.139963,40.726452 24.593378,40.018669 
z"/>
<path fill="#74B9D9" opacity="1.000000" stroke="none" 
	d="
M28.111683,35.800217 
	C27.829342,35.907719 27.757866,35.424595 27.704247,35.185898 
	C27.650627,34.947201 27.932699,34.610378 28.240139,34.365791 
	C28.547577,34.121208 29.027996,34.067204 29.027996,34.067204 
	C28.816673,34.609039 28.605349,35.150879 28.111683,35.800217 
z"/>
<path fill="#DFF8FD" opacity="1.000000" stroke="none" 
	d="
M74.979477,99.834198 
	C74.965508,99.623199 75.218033,99.385735 75.733589,99.117249 
	C75.746391,99.326721 75.496178,99.567223 74.979477,99.834198 
z"/>
<path fill="#E2FBFF" opacity="1.000000" stroke="none" 
	d="
M73.844421,23.598215 
	C73.628357,23.868763 73.324387,23.772732 72.938972,23.296848 
	C73.147316,23.066996 73.446976,23.171875 73.844421,23.598215 
z"/>
<path fill="#E2FBFF" opacity="1.000000" stroke="none" 
	d="
M43.944656,23.110264 
	C44.050819,23.399485 43.823944,23.624090 43.257957,23.760607 
	C43.161217,23.467243 43.392139,23.258287 43.944656,23.110264 
z"/>
<path fill="#E2FBFF" opacity="1.000000" stroke="none" 
	d="
M29.055683,33.815392 
	C29.027996,34.067204 28.547577,34.121208 28.308542,34.157051 
	C28.244547,33.879803 28.419588,33.566715 28.853399,33.155689 
	C29.102573,33.226364 29.092974,33.394974 29.055683,33.815392 
z"/>
<path fill="#E2FBFF" opacity="1.000000" stroke="none" 
	d="
M29.851139,32.149002 
	C29.915443,32.349091 29.732630,32.634884 29.304068,33.008636 
	C29.240219,32.809296 29.422121,32.522003 29.851139,32.149002 
z"/>
<path fill="#E2FBFF" opacity="1.000000" stroke="none" 
	d="
M30.860806,31.155704 
	C30.925543,31.358721 30.740976,31.643013 30.309765,32.012878 
	C30.245916,31.811296 30.428709,31.524139 30.860806,31.155704 
z"/>
<path fill="#E2FBFF" opacity="1.000000" stroke="none" 
	d="
M75.851028,24.596531 
	C75.635063,24.846872 75.343246,24.745029 74.991486,24.270058 
	C75.202072,24.063519 75.483284,24.179325 75.851028,24.596531 
z"/>
<path fill="#E2FBFF" opacity="1.000000" stroke="none" 
	d="
M77.860161,25.627644 
	C77.630859,25.880030 77.340034,25.765972 77.000351,25.267918 
	C77.218544,25.064318 77.500923,25.190079 77.860161,25.627644 
z"/>
<path fill="#74B9D9" opacity="1.000000" stroke="none" 
	d="
M23.544643,41.767525 
	C23.674660,42.069405 23.575184,42.399036 23.218304,42.611870 
	C22.936531,42.320595 22.912161,42.146118 22.887789,41.971642 
	C22.887789,41.971642 23.315155,41.795277 23.544643,41.767525 
z"/>
<path fill="#DFF8FD" opacity="1.000000" stroke="none" 
	d="
M22.671616,42.148136 
	C22.912161,42.146118 22.936531,42.320595 22.995361,42.757210 
	C23.029825,43.019352 22.614983,43.216919 22.400978,43.300987 
	C22.276463,43.031582 22.365952,42.678104 22.671616,42.148136 
z"/>
<path fill="#DFF8FD" opacity="1.000000" stroke="none" 
	d="
M25.153339,87.137909 
	C25.352913,87.086159 25.624542,87.282410 25.970879,87.725143 
	C25.772186,87.776390 25.498791,87.581139 25.153339,87.137909 
z"/>
<path fill="#DFF8FD" opacity="1.000000" stroke="none" 
	d="
M26.104851,88.185272 
	C26.380068,88.026390 26.637911,88.220154 26.859104,88.778305 
	C26.595686,88.908386 26.350695,88.706795 26.104851,88.185272 
z"/>
<path fill="#DFF8FD" opacity="1.000000" stroke="none" 
	d="
M32.070145,94.319702 
	C32.311214,94.120987 32.587067,94.270256 32.869968,94.791847 
	C32.641094,94.942444 32.383732,94.776947 32.070145,94.319702 
z"/>
<path fill="#DFF8FD" opacity="1.000000" stroke="none" 
	d="
M33.093102,95.262848 
	C33.268532,95.199890 33.554981,95.356529 33.936829,95.746292 
	C33.690617,95.923004 33.414581,95.757347 33.093102,95.262848 
z"/>
<path fill="#DFF8FD" opacity="1.000000" stroke="none" 
	d="
M38.131222,98.444870 
	C38.348133,98.179916 38.623768,98.279556 38.938564,98.771576 
	C38.738758,98.956680 38.476166,98.838516 38.131222,98.444870 
z"/>
<path fill="#FEFEFE" opacity="1.000000" stroke="none" 
	d="
M75.990967,57.020142 
	C76.625801,59.294380 77.391624,61.526909 77.874184,63.819077 
	C78.372467,66.185875 81.588478,68.370354 78.129318,71.183533 
	C77.769173,71.320923 77.777863,71.245331 77.770111,70.958954 
	C77.524460,70.447983 77.286560,70.223396 77.048660,69.998810 
	C76.564133,69.689201 76.079613,69.379593 75.070633,69.164383 
	C74.389885,69.560173 74.233589,69.861557 74.077286,70.162941 
	C73.814827,70.650322 73.552376,71.137703 72.697220,71.795197 
	C71.094383,73.009346 70.084251,74.053391 69.074120,75.097427 
	C69.074120,75.097427 68.997017,75.049438 68.800926,75.120331 
	C68.300201,75.363266 68.091843,75.614990 67.979759,75.946396 
	C67.979759,75.946396 67.992989,76.002853 67.553909,75.987885 
	C61.563377,77.523750 56.006660,77.592064 50.441219,76.042839 
	C50.289555,76.000618 50.110497,76.056801 49.944214,76.067085 
	C49.944214,76.067085 49.997704,75.999390 49.874886,75.792801 
	C49.453781,75.428795 49.155491,75.271370 48.857204,75.113945 
	C48.857204,75.113945 48.942310,75.157707 48.917099,74.803833 
	C47.580475,73.310165 46.269066,72.170357 44.957657,71.030548 
	C44.957657,71.030548 44.994854,70.996414 44.925758,70.801453 
	C44.713287,70.328262 44.497620,70.127846 44.209656,70.005226 
	C44.091255,69.646523 43.972851,69.287819 43.886036,68.156372 
	C43.929066,63.573402 43.940510,59.763184 43.951958,55.952965 
	C43.951954,55.952965 43.979496,56.003323 44.311321,55.944374 
	C45.704689,53.819782 46.766232,51.754135 47.827770,49.688488 
	C47.952843,49.407055 48.154247,49.199799 49.048508,49.008522 
	C55.370380,47.303070 61.084641,45.317856 66.527962,49.761597 
	C66.680153,49.885841 67.532883,49.151974 68.058952,48.818241 
	C68.058952,48.818241 68.525375,48.986877 68.752167,49.464493 
	C71.008583,51.942875 73.038208,53.943638 75.067825,55.944405 
	C75.067825,55.944405 75.027374,56.007908 75.112732,56.208649 
	C75.378448,56.707428 75.635315,56.907009 75.968689,57.008133 
	C75.968689,57.008133 75.997536,57.004627 75.990967,57.020142 
z"/>
<path fill="#DFF8FD" opacity="1.000000" stroke="none" 
	d="
M67.873215,48.524811 
	C67.532883,49.151974 66.680153,49.885841 66.527962,49.761597 
	C61.084641,45.317856 55.370380,47.303070 49.253944,48.928848 
	C54.547523,44.041889 60.208759,43.838810 67.873215,48.524811 
z"/>
<path fill="#DEFAFE" opacity="1.000000" stroke="none" 
	d="
M50.158218,76.362717 
	C50.110497,76.056801 50.289555,76.000618 50.441219,76.042839 
	C56.006660,77.592064 61.563377,77.523750 67.531418,75.969566 
	C62.248768,80.243332 56.354179,79.560066 50.158218,76.362717 
z"/>
<path fill="#DEFAFE" opacity="1.000000" stroke="none" 
	d="
M43.663288,56.195770 
	C43.940510,59.763184 43.929066,63.573402 43.852348,67.874718 
	C41.221851,64.474022 41.854156,60.471657 43.663288,56.195770 
z"/>
<path fill="#DFF8FD" opacity="1.000000" stroke="none" 
	d="
M75.011108,55.611938 
	C73.038208,53.943638 71.008583,51.942875 68.961151,49.598007 
	C70.947021,51.262424 72.950706,53.270947 75.011108,55.611938 
z"/>
<path fill="#DEFAFE" opacity="1.000000" stroke="none" 
	d="
M47.514511,49.829437 
	C46.766232,51.754135 45.704689,53.819782 44.291504,55.920208 
	C45.026993,53.960117 46.114120,51.965252 47.514511,49.829437 
z"/>
<path fill="#DEFAFE" opacity="1.000000" stroke="none" 
	d="
M45.005466,71.363571 
	C46.269066,72.170357 47.580475,73.310165 48.869545,74.809135 
	C47.582561,74.011070 46.317921,72.853828 45.005466,71.363571 
z"/>
<path fill="#DEFAFE" opacity="1.000000" stroke="none" 
	d="
M69.394806,75.051537 
	C70.084251,74.053391 71.094383,73.009346 72.454865,71.939651 
	C71.775314,72.944550 70.745407,73.975098 69.394806,75.051537 
z"/>
<path fill="#74B9D9" opacity="1.000000" stroke="none" 
	d="
M20.206888,51.760967 
	C19.933359,51.228230 19.956287,50.486954 19.992165,49.375088 
	C20.005112,49.004498 20.434305,48.856861 20.649546,48.784985 
	C20.744307,49.659550 20.623825,50.605988 20.206888,51.760967 
z"/>
<path fill="#74B9D9" opacity="1.000000" stroke="none" 
	d="
M21.872017,78.923309 
	C21.552464,78.706520 21.268991,78.161423 20.987907,77.296417 
	C21.296232,77.515999 21.602165,78.055504 21.872017,78.923309 
z"/>
<path fill="#74B9D9" opacity="1.000000" stroke="none" 
	d="
M21.276901,47.809231 
	C21.152407,47.404202 21.278294,46.804028 21.637184,45.993874 
	C21.755888,46.393955 21.641586,47.004025 21.276901,47.809231 
z"/>
<path fill="#74B9D9" opacity="1.000000" stroke="none" 
	d="
M26.196056,37.883446 
	C26.128914,37.694386 26.296726,37.399921 26.706409,37.009251 
	C26.775856,37.201378 26.603434,37.489712 26.196056,37.883446 
z"/>
<path fill="#74B9D9" opacity="1.000000" stroke="none" 
	d="
M27.153397,36.856125 
	C27.076736,36.650444 27.243128,36.351040 27.658388,35.968666 
	C27.736988,36.177933 27.566719,36.470169 27.153397,36.856125 
z"/>
<path fill="#DEFAFE" opacity="1.000000" stroke="none" 
	d="
M44.223946,70.242500 
	C44.497620,70.127846 44.713287,70.328262 44.915215,70.824028 
	C44.638042,70.972786 44.392864,70.785522 44.223946,70.242500 
z"/>
<path fill="#DFF8FD" opacity="1.000000" stroke="none" 
	d="
M77.077034,70.251930 
	C77.286560,70.223396 77.524460,70.447983 77.785599,70.924194 
	C77.574356,70.952232 77.339882,70.728645 77.077034,70.251930 
z"/>
<path fill="#DEFAFE" opacity="1.000000" stroke="none" 
	d="
M74.310593,70.049088 
	C74.233589,69.861557 74.389885,69.560173 74.782288,69.149155 
	C74.860222,69.338089 74.702057,69.636665 74.310593,70.049088 
z"/>
<path fill="#DFF8FD" opacity="1.000000" stroke="none" 
	d="
M75.908745,56.762054 
	C75.635315,56.907009 75.378448,56.707428 75.121613,56.172523 
	C75.313034,56.129093 75.580917,56.322533 75.908745,56.762054 
z"/>
<path fill="#DEFAFE" opacity="1.000000" stroke="none" 
	d="
M48.952126,75.355949 
	C49.155491,75.271370 49.453781,75.428795 49.850258,75.827301 
	C49.647980,75.911575 49.347511,75.754768 48.952126,75.355949 
z"/>
<path fill="#DEFAFE" opacity="1.000000" stroke="none" 
	d="
M68.229523,75.893845 
	C68.091843,75.614990 68.300201,75.363266 68.846123,75.124664 
	C68.884705,75.319160 68.681999,75.580223 68.229523,75.893845 
z"/>
<path fill="#55BAEE" opacity="1.000000" stroke="none" 
	d="
M108.075783,21.923258 
	C110.161568,22.600143 112.211594,23.811983 114.308289,23.898985 
	C120.972198,24.175503 120.978920,24.013519 120.993401,30.607576 
	C121.016357,41.059013 121.013931,41.034531 110.610535,42.064888 
	C109.769165,42.148216 108.992294,42.882805 108.136185,43.721619 
	C108.054512,46.135220 108.022102,48.141964 107.549438,50.576241 
	C106.066238,51.004574 105.023293,51.005363 103.980347,51.006157 
	C103.980347,51.006157 104.002319,51.000145 104.005386,50.608704 
	C103.292374,48.843975 102.576294,47.470692 101.860214,46.097404 
	C101.860222,46.097404 101.903038,46.028221 101.851044,45.826866 
	C101.634834,45.321205 101.391434,45.106804 101.068855,44.982311 
	C101.068855,44.982311 100.918228,44.684437 100.866119,44.229050 
	C100.549637,43.506927 100.285255,43.240185 100.020882,42.973446 
	C100.020882,42.973446 99.872047,42.682724 99.904350,42.125221 
	C99.248154,40.742634 98.559662,39.917542 97.871162,39.092453 
	C97.871162,39.092453 97.911301,39.023449 97.845566,38.815773 
	C97.508286,38.411724 97.236725,38.215343 96.965172,38.018967 
	C96.965172,38.018967 97.000748,37.999573 96.908577,37.787704 
	C96.639328,37.286602 96.390190,37.087574 96.068977,36.978760 
	C96.068977,36.978760 96.001823,36.987373 95.989029,36.662201 
	C95.612877,35.907673 95.249527,35.478325 94.886177,35.048973 
	C94.886177,35.048973 94.961212,35.017097 94.863647,34.811596 
	C94.483040,34.417171 94.199989,34.228249 93.916939,34.039326 
	C93.916939,34.039326 93.986954,34.010925 93.882935,33.804012 
	C93.501457,33.404686 93.224007,33.212273 92.946548,33.019863 
	C92.946548,33.019863 92.999588,33.000301 92.891304,32.789730 
	C92.503815,32.393246 92.224617,32.207329 91.945412,32.021416 
	C91.945412,32.021416 91.999184,32.000767 91.892883,31.790440 
	C91.510658,31.390764 91.234741,31.201416 90.958824,31.012068 
	C90.958824,31.012068 91.002083,30.997620 90.892395,30.784134 
	C90.500938,30.388477 90.219162,30.206306 89.937393,30.024136 
	C89.937393,30.024134 89.996666,30.002960 89.887451,29.792925 
	C89.492966,29.400213 89.207695,29.217539 88.922417,29.034863 
	C88.922417,29.034863 88.990044,29.009996 88.878372,28.802048 
	C88.474396,28.418356 88.182098,28.242615 87.889793,28.066875 
	C87.889793,28.066874 87.972900,28.051836 87.826660,27.814148 
	C87.120911,27.385054 86.561386,27.193647 86.001869,27.002241 
	C86.001869,27.002241 85.999695,27.000229 86.005737,26.531483 
	C86.008698,24.401741 85.994652,22.740681 86.004234,21.079758 
	C86.089027,6.380877 83.332947,6.855345 101.362411,7.018589 
	C101.693932,7.021590 102.033058,7.014343 102.355354,7.078544 
	C105.250107,7.655179 107.352974,8.932416 106.988235,12.371205 
	C106.779991,14.334526 106.334511,16.317869 106.476479,18.257011 
	C106.568680,19.516346 107.527100,20.712263 108.097420,21.936592 
	C108.097420,21.936592 108.061378,21.943382 108.075783,21.923258 
z"/>
<path fill="#67B7DD" opacity="1.000000" stroke="none" 
	d="
M108.089973,21.475098 
	C107.527100,20.712263 106.568680,19.516346 106.476479,18.257011 
	C106.334511,16.317869 106.779991,14.334526 106.988235,12.371205 
	C107.352974,8.932416 105.250107,7.655179 102.355354,7.078544 
	C102.033058,7.014343 101.693932,7.021590 101.362411,7.018589 
	C83.332947,6.855345 86.089027,6.380877 86.004234,21.079758 
	C85.994652,22.740681 86.008698,24.401741 86.004700,26.530500 
	C85.655891,22.144104 85.278465,17.292057 84.990860,12.434691 
	C84.883049,10.613963 84.984138,8.780866 85.005783,6.487102 
	C92.366692,5.985348 99.711815,5.949899 107.522392,5.963072 
	C108.019417,11.012329 108.050972,16.012964 108.089973,21.475098 
z"/>
<path fill="#67B7DD" opacity="1.000000" stroke="none" 
	d="
M104.002800,51.360222 
	C105.023293,51.005363 106.066238,51.004574 107.498749,51.005878 
	C107.679733,52.575928 107.471161,54.143875 107.262589,55.711826 
	C106.837791,55.755432 106.412994,55.799038 105.988197,55.842644 
	C105.333878,54.466522 104.679565,53.090405 104.002800,51.360222 
z"/>
<path fill="#67B7DD" opacity="1.000000" stroke="none" 
	d="
M101.890594,46.442387 
	C102.576294,47.470692 103.292374,48.843975 104.000137,50.619041 
	C103.301537,49.609669 102.611252,48.198517 101.890594,46.442387 
z"/>
<path fill="#67B7DD" opacity="1.000000" stroke="none" 
	d="
M97.909088,39.416824 
	C98.559662,39.917542 99.248154,40.742634 99.896713,41.962101 
	C99.220192,41.484718 98.583603,40.612957 97.909088,39.416824 
z"/>
<path fill="#67B7DD" opacity="1.000000" stroke="none" 
	d="
M86.148087,27.263405 
	C86.561386,27.193647 87.120911,27.385054 87.812027,27.853760 
	C87.393852,27.928894 86.844070,27.726730 86.148087,27.263405 
z"/>
<path fill="#67B7DD" opacity="1.000000" stroke="none" 
	d="
M94.925095,35.339619 
	C95.249527,35.478325 95.612877,35.907673 96.007782,36.634022 
	C95.680901,36.497433 95.322449,36.063850 94.925095,35.339619 
z"/>
<path fill="#67B7DD" opacity="1.000000" stroke="none" 
	d="
M93.035507,33.263592 
	C93.224007,33.212273 93.501457,33.404686 93.869873,33.839462 
	C93.682037,33.890320 93.403244,33.698818 93.035507,33.263592 
z"/>
<path fill="#67B7DD" opacity="1.000000" stroke="none" 
	d="
M94.002701,34.288536 
	C94.199989,34.228249 94.483040,34.417171 94.855881,34.851616 
	C94.659935,34.910671 94.374199,34.724209 94.002701,34.288536 
z"/>
<path fill="#67B7DD" opacity="1.000000" stroke="none" 
	d="
M87.978546,28.315876 
	C88.182098,28.242615 88.474396,28.418356 88.867073,28.836258 
	C88.667397,28.907236 88.367348,28.736055 87.978546,28.315876 
z"/>
<path fill="#67B7DD" opacity="1.000000" stroke="none" 
	d="
M92.038101,32.262856 
	C92.224617,32.207329 92.503815,32.393246 92.881752,32.816330 
	C92.697250,32.870434 92.414024,32.687366 92.038101,32.262856 
z"/>
<path fill="#67B7DD" opacity="1.000000" stroke="none" 
	d="
M91.051880,31.251415 
	C91.234741,31.201416 91.510658,31.390764 91.882767,31.817406 
	C91.700951,31.866722 91.422943,31.678743 91.051880,31.251415 
z"/>
<path fill="#67B7DD" opacity="1.000000" stroke="none" 
	d="
M90.032486,30.264751 
	C90.219162,30.206306 90.500938,30.388477 90.885635,30.805912 
	C90.701569,30.862574 90.414574,30.683969 90.032486,30.264751 
z"/>
<path fill="#67B7DD" opacity="1.000000" stroke="none" 
	d="
M89.021179,29.275240 
	C89.207695,29.217539 89.492966,29.400213 89.877686,29.822842 
	C89.691399,29.880400 89.405678,29.698008 89.021179,29.275240 
z"/>
<path fill="#67B7DD" opacity="1.000000" stroke="none" 
	d="
M100.072800,43.253731 
	C100.285255,43.240185 100.549637,43.506927 100.856461,44.062431 
	C100.640846,44.078804 100.382782,43.806408 100.072800,43.253731 
z"/>
<path fill="#67B7DD" opacity="1.000000" stroke="none" 
	d="
M101.115356,45.234932 
	C101.391434,45.106804 101.634834,45.321205 101.866943,45.864304 
	C101.677177,45.897919 101.419518,45.692734 101.115356,45.234932 
z"/>
<path fill="#67B7DD" opacity="1.000000" stroke="none" 
	d="
M96.132431,37.219658 
	C96.390190,37.087574 96.639328,37.286602 96.898209,37.805122 
	C96.631027,37.962803 96.369652,37.771519 96.132431,37.219658 
z"/>
<path fill="#67B7DD" opacity="1.000000" stroke="none" 
	d="
M97.038712,38.269928 
	C97.236725,38.215343 97.508286,38.411724 97.860939,38.852612 
	C97.665443,38.905045 97.388847,38.712967 97.038712,38.269928 
z"/>
<path fill="#F3F4F3" opacity="1.000000" stroke="none" 
	d="
M36.362122,117.320168 
	C39.531586,114.503136 40.649338,116.065582 40.014355,118.901237 
	C39.592285,120.786072 37.834332,122.371780 36.674335,124.091377 
	C36.069561,123.765244 35.464783,123.439117 34.860008,123.112984 
	C35.272060,121.292984 35.684113,119.472992 36.362122,117.320168 
z"/>
<path fill="#EEEEEF" opacity="1.000000" stroke="none" 
	d="
M51.571507,122.355316 
	C50.303684,122.950050 49.297981,123.255547 47.953197,123.664047 
	C47.797401,119.875107 47.809124,116.772369 53.285416,115.333504 
	C52.693184,118.079918 52.263405,120.072990 51.571507,122.355316 
z"/>
<path fill="#F0F0F1" opacity="1.000000" stroke="none" 
	d="
M97.762131,123.608582 
	C94.885933,119.080742 95.950157,116.700951 102.150757,116.059219 
	C100.574272,118.968346 99.349487,121.228477 97.762131,123.608582 
z"/>
<path fill="#F3F3F3" opacity="1.000000" stroke="none" 
	d="
M27.038914,117.822571 
	C26.122780,120.166824 25.233284,122.106209 24.343790,124.045593 
	C23.605314,123.828018 22.866840,123.610443 22.128365,123.392876 
	C22.597565,121.198830 22.991253,118.980133 23.683712,116.858971 
	C23.737337,116.694710 25.889023,117.215370 27.038914,117.822571 
z"/>
</svg>